<svg width="500" height="330" viewBox="0 0 500 330" fill="none" xmlns="http://www.w3.org/2000/svg">
<path d="M299.595 149.181L298.84 149.2L299.336 169.462L300.091 169.444L299.595 149.181Z" fill="#53CAF1"/>
<path d="M322.604 150.769H321.849V163.624H322.604V150.769Z" fill="#53CAF1"/>
<path d="M257.416 47.479L256.662 47.5027L257.712 80.6101L258.467 80.5864L257.416 47.479Z" fill="#53CAF1"/>
<path d="M297.153 43.5401L296.398 43.5637L297.497 78.6402L298.252 78.6165L297.153 43.5401Z" fill="#53CAF1"/>
<path d="M366.666 154.009C365.859 154.475 356.823 154.734 342.812 154.864C338.958 154.89 334.739 154.916 330.234 154.942C270.442 155.175 157.395 153.879 148.802 154.009C137.187 154.19 148.802 109.221 148.802 87.1384C148.802 65.0558 185.677 75.8638 290.807 72.313H359.114C359.088 72.313 370.572 151.78 366.666 154.009Z" fill="#53CAF1"/>
<path d="M291.51 78.8962C276.901 79.1036 275.521 80.0107 274.297 95.8989C273.047 111.787 269.687 136.876 288.333 136.254C306.979 135.632 305.729 122.88 305.026 105.333C304.323 87.7863 303.958 78.7148 291.51 78.8962Z" fill="white"/>
<path d="M290.417 83.8986C283.073 84.08 282.396 84.8317 281.771 97.9465C281.146 111.061 279.453 131.77 288.828 131.252C298.203 130.759 297.578 120.211 297.213 105.722C296.849 91.2336 296.667 83.7431 290.417 83.8986Z" fill="#53CAF1"/>
<path d="M244.14 80.1922C212.421 118.655 202.578 123.554 214.244 126.561C225.911 129.567 232.526 125.394 233.619 131.381C234.713 137.369 233.203 159.296 233.203 159.296H254.244L255.807 80.1663H244.14V80.1922Z" fill="white"/>
<path d="M244.088 89.0823C236.432 97.7909 220.052 116.945 220.052 116.945C220.052 116.945 241.823 116.737 244.505 116.737C244.739 114.975 245.234 99.035 244.088 89.0823Z" fill="#53CAF1"/>
<path d="M345.052 154.579C345.052 154.579 344.167 154.708 342.812 154.864C338.958 154.89 334.74 154.916 330.234 154.941C329.323 151.261 329.427 131.667 329.219 127.882C328.984 123.761 323.151 125.368 315 124.461C306.849 123.554 308.464 122.18 330.391 88.4083C332.37 85.35 332.943 81.0993 332.943 81.0993C332.943 81.0993 346.458 80.1921 347.161 80.1921C347.865 80.1921 345.052 154.579 345.052 154.579Z" fill="white"/>
<path d="M333.177 90.9744C324.557 103.96 319.896 114.405 319.896 114.405H333.177V90.9744Z" fill="#53CAF1"/>
<path d="M152.969 103.7H132.604V104.452H152.969V103.7Z" fill="#53CAF1"/>
<path d="M149.479 135.062H134.088V135.814H149.479V135.062Z" fill="#53CAF1"/>
<path d="M137.07 86.0086L135.891 161.113L136.646 161.125L137.825 86.0203L137.07 86.0086Z" fill="#53CAF1"/>
<path d="M224.558 66.7487L224.067 78.1167L224.821 78.149L225.313 66.781L224.558 66.7487Z" fill="#53CAF1"/>
<path d="M319.11 66.2378L318.357 66.2979L319.352 78.6473L320.105 78.5872L319.11 66.2378Z" fill="#53CAF1"/>
<path d="M324.948 139.963L324.927 140.714L340.468 141.135L340.488 140.384L324.948 139.963Z" fill="#53CAF1"/>
<path d="M298.87 78.0435L298.115 78.0669L300.054 139.981L300.808 139.958L298.87 78.0435Z" fill="#53CAF1"/>
<path d="M229.114 94.1365V93.3848L321.588 90.9485V90.6375L326.692 90.793V91.5446L229.114 94.1365Z" fill="#53CAF1"/>
<path d="M333.299 107.377L315.407 108.318L315.447 109.068L333.339 108.128L333.299 107.377Z" fill="#53CAF1"/>
<path d="M293.819 109.424L237.466 112.387L237.506 113.138L293.859 110.174L293.819 109.424Z" fill="#53CAF1"/>
<path d="M203.333 246.849C201.38 276.552 191.953 268.439 191.302 272.975C190.651 277.511 205.937 277.511 206.588 271.368C207.239 265.225 209.766 246.849 209.766 246.849H203.333Z" fill="#93D8F8"/>
<path d="M344.453 246.849C346.406 276.552 355.833 268.439 356.484 272.975C357.135 277.511 341.849 277.511 341.198 271.368C340.547 265.225 338.021 246.849 338.021 246.849H344.453Z" fill="#93D8F8"/>
<path d="M199.427 64.3041C199.375 60.831 199.323 57.3579 199.271 53.9107C199.219 50.619 199.713 46.7572 198.62 43.5951C196.927 38.6965 190.937 37.7634 186.458 37.1154C181.536 36.3897 176.302 36.8562 172.682 40.6404C169.375 44.1394 168.646 49.2453 168.541 53.8329C168.385 60.8569 168.906 67.9327 169.14 74.9566C169.609 89.9635 170.078 104.996 170.547 120.003C171.067 137.006 171.614 154.034 172.135 171.037C172.239 174.406 177.526 174.432 177.422 171.037C176.64 145.766 175.833 120.496 175.052 95.225C174.661 82.473 174.166 69.6951 173.854 56.9173C173.75 52.7444 173.463 47.1719 176.771 44.0098C180.13 40.7959 187.63 41.7808 191.562 43.621C195.026 45.228 193.958 51.4225 194.01 54.6623C194.062 58.1354 194.114 61.6085 194.166 65.0557C194.271 72.2352 194.375 79.4146 194.505 86.5941C194.557 89.9635 199.844 89.9894 199.791 86.5941C199.635 79.1554 199.531 71.7427 199.427 64.3041Z" fill="#D2F1FC"/>
<path d="M366.666 187.858C356.901 251.722 357.812 248.378 331.823 252.033C305.833 255.687 202.552 266.132 185.755 247.367C168.958 228.602 169.87 175.08 169.87 175.08L366.666 187.858Z" fill="#D2F1FC"/>
<path d="M169.87 175.08C169.87 175.08 168.958 228.602 185.755 247.367C186.484 248.171 187.37 248.923 188.411 249.648C189.948 243.92 191.771 238.218 194.791 233.112C198.437 226.969 203.932 222.356 210.338 219.246C235.547 207.038 265.26 220.101 288.177 231.402C299.739 237.104 312.969 241.562 319.974 253.121C320.052 253.251 320.13 253.355 320.182 253.484C324.896 252.94 328.854 252.447 331.797 252.033C357.76 248.378 356.849 251.722 366.64 187.858L169.87 175.08Z" fill="#81CEEA"/>
<path d="M272.63 164.22C205.911 165.983 157.265 150.769 158.906 173.37C160.547 195.945 155.625 211.496 225.963 210.537C296.302 209.578 376.51 217.665 382.76 190.839C388.984 163.987 376.823 161.473 272.63 164.22Z" fill="#D2F1FC"/>
<path d="M272.63 164.22C271.692 164.246 270.755 164.272 269.817 164.272C281.614 171.348 294.609 177.154 303.828 187.495C310.13 194.571 312.682 202.398 313.385 210.848C350.494 210.2 379.114 206.416 382.734 190.813C388.984 163.987 376.823 161.473 272.63 164.22Z" fill="#93D8F8"/>
<path d="M272.552 165.827C210.521 167.097 165.286 156.237 166.823 172.359C168.359 188.48 163.776 199.573 229.166 198.9C294.557 198.226 369.114 204.005 374.922 184.826C380.729 165.646 369.401 163.858 272.552 165.827Z" fill="#0000EF"/>
<path d="M337.291 181.923C337.005 179.616 335.13 177.776 332.995 176.843C330.859 175.91 328.489 175.728 326.172 175.573C314.401 174.743 278.255 173.629 272.187 173.966C268.463 178.165 264.739 182.337 260.963 186.484C268.463 186.873 275.963 187.262 283.463 187.651C286.693 187.806 289.948 187.988 293.177 188.143C295.338 188.247 297.5 188.377 299.635 188.48C307.812 188.895 316.823 187.469 325.026 187.469C333.177 187.443 337.63 184.774 337.291 181.923Z" fill="#03036D"/>
<path d="M184.297 179.72C173.49 181.042 182.474 185.862 193.646 187.029C200.677 187.754 207.76 186.847 214.818 186.77C223.281 186.666 220.521 179.746 214.062 179.098C211.562 178.813 198.776 177.957 184.297 179.72Z" fill="#03036D"/>
<path d="M285.469 57.4875C161.562 58.4205 143.281 53.5219 146.458 58.1613C149.609 62.8267 206.823 65.2371 272.969 62.8267C356.042 59.8201 386.979 66.0925 384.088 58.7056C381.198 51.3188 354.635 56.9691 285.469 57.4875Z" fill="#D2F1FC"/>
<path d="M316.146 181.275C301.797 179.616 302.917 181.586 304.141 183.374C305.365 185.137 324.141 184.826 325.182 183.374C326.224 181.923 320.313 181.767 316.146 181.275Z" fill="#0000EF"/>
<path d="M197.031 83.8985C182.76 86.7495 179.557 95.3545 179.557 95.3545L218.672 92.8145C218.672 92.8145 219.271 79.4664 197.031 83.8985Z" fill="#D2F1FC"/>
<path d="M280.13 185.396L279.792 184.722L290.521 179.487L289.713 180.653C289.114 181.534 289.166 182.804 289.844 183.634C290.521 184.463 291.771 184.774 292.734 184.359L293.021 185.059C291.719 185.603 290.13 185.215 289.245 184.126C288.594 183.323 288.385 182.234 288.62 181.249L280.13 185.396Z" fill="white"/>
<path d="M391.016 260.819C391.016 260.819 381.536 254.754 377.005 260.819C375.417 262.945 370.104 264.733 363.828 265.899C360.833 266.469 357.604 266.884 354.479 267.143C345.547 267.843 337.344 267.169 336.849 264.422C335.833 258.694 344.062 171.167 342.422 138.509C340.781 105.852 336.849 58.1614 336.849 58.1614C339.948 77.1857 359.297 59.8202 359.297 59.8202C359.297 59.8202 363.724 78.1965 370.364 62.5157C370.364 62.5157 377.344 72.3907 379.844 62.0751C379.844 62.0751 385.651 132.496 385.651 168.549C385.677 204.602 391.016 260.819 391.016 260.819Z" fill="#3CA184"/>
<path d="M180.963 258.901C180.963 258.901 176.015 252.836 173.646 258.901C172.812 261.027 170.026 262.815 166.745 263.981C165.182 264.551 163.489 264.966 161.849 265.225C157.187 265.925 152.864 265.251 152.63 262.504C152.083 256.776 156.406 169.249 155.547 136.591C154.687 103.934 152.812 58.1614 152.812 58.1614C155.13 72.0797 160.521 65.9888 164.635 60.7014C164.635 60.7014 173.828 70.4727 175.13 60.1571C175.13 60.1571 178.177 130.578 178.177 166.631C178.177 202.684 180.963 258.901 180.963 258.901Z" fill="#3CA184"/>
<path d="M162.317 223.885C160.833 206.546 159.088 189.232 158.75 171.815C158.411 154.397 159.01 136.954 159.297 119.537C159.401 113.99 159.01 108.599 158.828 103.078C158.698 98.9055 158.463 93.5662 161.015 89.9635C162.317 88.0974 164.765 86.1794 167.135 87.0866C168.828 87.7086 169.843 89.808 171.302 90.8966C172.968 92.1666 173.541 93.0479 175.026 90.8448C175.599 89.9895 175.963 88.9786 176.224 87.9678C175.625 71.7687 175.13 60.1571 175.13 60.1571C173.828 70.4727 164.635 60.7014 164.635 60.7014C160.521 65.9888 155.13 72.0797 152.812 58.1614C152.812 58.1614 154.687 103.934 155.547 136.591C156.406 169.249 152.109 256.776 152.63 262.504C152.89 265.251 157.187 265.925 161.849 265.225C163.229 265.018 164.609 264.681 165.963 264.24C164.661 250.789 163.463 237.337 162.317 223.885Z" fill="#2C8469"/>
<path d="M352.604 96.4693C353.177 102.016 352.813 110.569 355.651 116.427C355.859 113.239 355.911 110.025 356.068 106.837C356.354 100.953 356.354 93.8774 359.375 88.59C361.615 84.6763 366.25 83.0952 370.26 85.6093C374.896 88.5382 375.573 95.4843 375.964 100.383C376.458 106.655 376.068 112.928 375.729 119.2C375.182 128.79 374.74 138.406 374.479 147.996C373.854 172.204 374.974 196.1 378.646 220.075C380.234 230.417 381.875 240.706 383.255 251.074C383.568 253.484 383.932 255.895 384.401 258.305C387.917 258.849 391.042 260.845 391.042 260.845C391.042 260.845 385.677 204.602 385.677 168.549C385.677 132.496 379.87 62.0752 379.87 62.0752C377.37 72.3908 370.391 62.5158 370.391 62.5158C363.75 78.1707 359.323 59.8203 359.323 59.8203C359.323 59.8203 354.401 64.2265 349.141 66.1704C350.313 76.2527 351.536 86.361 352.604 96.4693Z" fill="#2C8469"/>
<path d="M363.906 197.007C363.698 213.362 363.776 246.02 363.854 265.925C360.859 266.495 357.63 266.91 354.505 267.169C356.068 204.239 351.875 149.965 356.51 147.607C361.354 145.118 364.193 172.514 363.906 197.007Z" fill="#2C8469"/>
<path d="M336.633 53.2491L335.887 53.3657L337.51 63.6589L338.256 63.5424L336.633 53.2491Z" fill="#0000EF"/>
<path d="M358.255 64.8744L357.526 64.7189C358.463 60.6496 357.396 56.088 354.739 52.8481L355.312 52.3816C358.125 55.8029 359.244 60.5978 358.255 64.8744Z" fill="#0000EF"/>
<path d="M370.078 67.0774L369.349 66.8441C370.781 62.2306 370.052 57.0469 367.37 53.0036L367.995 52.5889C370.807 56.8395 371.562 62.2565 370.078 67.0774Z" fill="#0000EF"/>
<path d="M379.479 66.8183L378.776 66.5332C380.39 62.7231 379.531 57.98 376.692 54.9735L377.239 54.4551C380.312 57.669 381.224 62.749 379.479 66.8183Z" fill="#0000EF"/>
<path d="M153.177 62.438C152.239 59.561 152.656 57.2284 153.073 54.7661L153.151 54.2996L153.906 54.4292L153.828 54.8957C153.385 57.358 153.021 59.5092 153.906 62.2047L153.177 62.438Z" fill="#0000EF"/>
<path d="M164.609 63.0602C163.906 60.2869 163.906 57.3321 164.583 54.5588L165.312 54.7403C164.661 57.4099 164.687 60.235 165.338 62.8787L164.609 63.0602Z" fill="#0000EF"/>
<path d="M174.687 64.1745C174.218 61.2198 174.192 58.2391 174.661 55.2844L175.416 55.3881C174.974 58.2651 174.974 61.168 175.442 64.0449L174.687 64.1745Z" fill="#0000EF"/>
<path d="M117.422 274.453C115.833 274.453 114.297 274.193 113.099 273.208C111.224 271.653 111.172 269.165 111.094 266.781C111.068 265.485 111.015 264.163 110.703 262.971C110.208 261.104 108.724 259.472 106.745 258.59C104.765 257.709 102.552 257.709 100.833 258.564L100.495 257.891C102.448 256.906 104.844 256.906 107.057 257.891C109.271 258.875 110.859 260.638 111.432 262.763C111.771 264.033 111.797 265.407 111.849 266.729C111.901 269.061 111.979 271.265 113.594 272.612C115.026 273.805 117.161 273.753 119.219 273.597L152.318 271.083L152.37 271.835L119.271 274.349C118.672 274.427 118.021 274.453 117.422 274.453Z" fill="#0000EF"/>
<path d="M105.521 256.128C105.443 253.925 103.698 252.162 101.484 252.007C99.479 251.851 98.0467 251.825 96.979 251.877C97.3696 256.05 97.9425 260.171 98.5415 264.318C98.6457 264.344 98.7498 264.37 98.854 264.37C101.38 264.526 104.453 264.137 105.052 261.364C105.469 259.446 105.573 257.631 105.521 256.128Z" fill="#0000EF"/>
<path d="M98.7608 254.751L95.1548 255.064L95.2204 255.813L98.8265 255.5L98.7608 254.751Z" fill="#F4A914"/>
<path d="M98.7622 259.577L95.1558 259.887L95.2207 260.636L98.8271 260.326L98.7622 259.577Z" fill="#F4A914"/>
<path d="M113.438 210.978C124.896 258.305 131.016 271.342 131.016 271.342L184.115 266.236L177.63 212.403L113.438 210.978Z" fill="#03036D"/>
<path d="M178.984 259.679L137.63 263.67C137.63 263.67 134.245 256.517 127.89 232.361C126.693 227.773 125.364 222.538 123.932 216.654L173.932 217.769L174.505 222.46L178.984 259.679Z" fill="#FFB0D8"/>
<path d="M133.88 266.651C135.781 279.118 135.755 277.485 146.25 277.485C156.771 277.485 205.39 281.554 208.463 276.189C211.51 270.824 212.786 266.651 212.786 266.651L162.187 265.459L133.88 266.651Z" fill="#03036D"/>
<path d="M174.479 222.46L164.896 224.015L162.864 258.227L155.599 245.89C147.734 245.994 139.896 246.616 132.057 247.393C135.703 259.627 137.604 263.67 137.604 263.67L178.958 259.679L174.479 222.46Z" fill="#FE7EB2"/>
<path d="M184.101 265.552L135.747 266.069L135.755 266.82L184.109 266.303L184.101 265.552Z" fill="#0000EF"/>
<path d="M131.979 224.818L133.88 229.795L153.62 226.97L155.26 221.682L131.979 224.818Z" fill="white"/>
<path d="M135.755 232.853L151.458 230.572V232.853L135.755 236.171V232.853Z" fill="white"/>
<path d="M252.161 123.813C233.255 121.299 236.12 147.607 236.12 147.607C236.12 147.607 223.177 157.585 213.698 145.896C204.219 134.207 195.833 120.496 199.479 145.144C203.125 169.767 204.583 180.912 216.25 186.044C227.917 191.176 224.609 180.446 224.609 180.446C224.609 180.446 245.99 189.569 260.573 186.718C275.156 183.867 285.365 177.698 274.792 154.475C264.219 131.226 261.302 125.032 252.161 123.813Z" fill="#FFD939"/>
<path d="M270 144.056C266.432 145.481 263.463 148.125 261.901 151.676C259.922 156.16 259.791 161.24 256.484 165.128C253.229 168.886 248.177 170.804 243.489 172.022C238.802 173.266 233.724 174.303 228.854 173.992C219.166 173.396 212.812 167.694 208.437 159.451C204.14 151.313 200.599 143.097 198.698 134.259C198.489 136.41 198.724 139.909 199.505 145.118C203.151 169.741 204.609 180.886 216.276 186.018C227.943 191.15 224.635 180.42 224.635 180.42C224.635 180.42 246.015 189.543 260.599 186.692C275.182 183.841 285.39 177.672 274.818 154.449C272.995 150.51 271.406 147.062 270 144.056Z" fill="#F4A914"/>
<path d="M274.297 137.343C275.729 136.436 277.578 135.295 278.984 136.254C280.521 137.317 272.76 143.304 269.896 144.911C266.302 146.907 259.062 150.432 260 144.16C260.781 138.82 270.599 139.676 274.297 137.343Z" fill="#E04136"/>
<path d="M250.964 143.615C258.698 138.509 251.406 127.597 243.438 132.729C235.156 138.043 243.386 148.617 250.964 143.615Z" fill="white"/>
<path d="M249.74 141.905C255.026 138.406 250.052 130.941 244.583 134.44C238.932 138.069 244.557 145.3 249.74 141.905Z" fill="#03036D"/>
<path d="M235.208 154.19C236.276 154.035 237.37 153.879 238.411 154.164C240.26 154.683 241.51 156.549 241.745 158.441C241.979 160.333 241.406 162.251 240.651 164.013C238.464 169.016 234.531 173.37 229.427 175.34C224.323 177.335 218.099 176.636 213.984 173.059C210.026 169.586 207.448 161.396 212.734 158.026C218.229 154.553 228.958 155.097 235.208 154.19Z" fill="#F4A914"/>
<path d="M220.885 176.921C219.791 176.921 218.646 176.791 217.526 176.428C214.713 175.573 212.291 173.448 211.041 170.778C209.817 168.108 209.791 164.895 210.963 162.199L211.666 162.51C210.573 164.998 210.599 167.979 211.745 170.467C212.89 172.955 215.13 174.899 217.76 175.703C220.364 176.506 223.541 176.221 226.692 174.899C229.557 173.707 232.135 171.841 234.609 170.026L235.052 170.623C232.526 172.463 229.922 174.355 226.979 175.573C225.39 176.273 223.229 176.921 220.885 176.921Z" fill="white"/>
<path d="M241.849 130.734L241.224 130.319C243.255 127.338 247.735 126.405 250.781 128.323L250.391 128.971C247.63 127.235 243.646 128.064 241.849 130.734Z" fill="#0000EF"/>
<path d="M184.089 97.9746L183.335 98.0173L184.9 125.395L185.654 125.353L184.089 97.9746Z" fill="white"/>
<path d="M188.332 99.5869L187.582 99.6738L188.572 108.144L189.323 108.057L188.332 99.5869Z" fill="white"/>
<path d="M199.505 121.558C197.526 113.938 196.849 106.111 197.474 98.2834L198.229 98.3353C197.604 106.085 198.255 113.835 200.234 121.351L199.505 121.558Z" fill="white"/>
<path d="M209.688 97.0029L208.934 97.0388L209.262 103.874L210.017 103.838L209.688 97.0029Z" fill="white"/>
<path d="M217.429 97.3252L216.675 97.3794L219.681 138.767L220.434 138.713L217.429 97.3252Z" fill="white"/>
<path d="M213.835 131.231L213.081 131.268L213.411 138.102L214.165 138.066L213.835 131.231Z" fill="white"/>
<path d="M192.891 141.723H192.136C192.136 139.339 191.875 137.343 191.589 135.425C191.25 133.04 190.938 130.785 191.276 128.245L192.031 128.349C191.719 130.785 192.005 132.988 192.344 135.321C192.604 137.265 192.891 139.287 192.891 141.723Z" fill="white"/>
<path d="M196.302 146.881H195.547V152.09H196.302V146.881Z" fill="white"/>
<path d="M192.013 169.169L191.259 169.216L192.144 183.315L192.898 183.268L192.013 169.169Z" fill="white"/>
<path d="M217.917 112.76L217.166 112.84L218.563 125.829L219.313 125.749L217.917 112.76Z" fill="#53CAF1"/>
</svg>
