<svg width="64" height="64" viewBox="0 0 64 64" fill="none" xmlns="http://www.w3.org/2000/svg">
<g clip-path="url(#clip0_774_20397)">
<rect width="64" height="64" rx="32" fill="#E1E4EA"/>
<rect width="64" height="64" fill="#E1E4EA"/>
<g opacity="0.48" filter="url(#filter0_b_774_20397)">
<path d="M8 28.4573C8 26.69 9.43268 25.2573 11.2 25.2573H35.1996C36.9669 25.2573 38.3996 26.69 38.3996 28.4573V84.4575C38.3996 86.2248 36.9669 87.6575 35.1996 87.6575H11.2C9.43268 87.6575 8 86.2248 8 84.4575V28.4573Z" fill="white"/>
</g>
<path d="M14.3999 32.8C14.3999 32.3582 14.7581 32 15.1999 32H19.9998C20.4416 32 20.7998 32.3582 20.7998 32.8V37.6C20.7998 38.0418 20.4416 38.4 19.9998 38.4H15.1999C14.7581 38.4 14.3999 38.0418 14.3999 37.6V32.8Z" fill="#E1E4EA"/>
<path d="M14.3999 44C14.3999 43.5581 14.7581 43.2 15.1999 43.2H19.9998C20.4416 43.2 20.7998 43.5581 20.7998 44V48.8C20.7998 49.2418 20.4416 49.6 19.9998 49.6H15.1999C14.7581 49.6 14.3999 49.2418 14.3999 48.8V44Z" fill="#E1E4EA"/>
<path d="M14.3999 55.1999C14.3999 54.7581 14.7581 54.3999 15.1999 54.3999H19.9998C20.4416 54.3999 20.7998 54.7581 20.7998 55.1999V59.9999C20.7998 60.4417 20.4416 60.7999 19.9998 60.7999H15.1999C14.7581 60.7999 14.3999 60.4417 14.3999 59.9999V55.1999Z" fill="#E1E4EA"/>
<g filter="url(#filter1_bi_774_20397)">
<path d="M24 16C24 14.2327 25.4327 12.8 27.2 12.8H51.1996C52.9669 12.8 54.3996 14.2327 54.3996 16V72.0002C54.3996 73.7675 52.9669 75.2002 51.1996 75.2002H27.2C25.4327 75.2002 24 73.7675 24 72.0002V16Z" fill="white" fill-opacity="0.8"/>
</g>
<path d="M30.3999 20.3427C30.3999 19.9009 30.7581 19.5427 31.1999 19.5427H35.9998C36.4416 19.5427 36.7998 19.9009 36.7998 20.3427V25.1427C36.7998 25.5846 36.4416 25.9427 35.9998 25.9427H31.1999C30.7581 25.9427 30.3999 25.5846 30.3999 25.1427V20.3427Z" fill="#E1E4EA"/>
<path d="M30.3999 31.5429C30.3999 31.1011 30.7581 30.7429 31.1999 30.7429H35.9998C36.4416 30.7429 36.7998 31.1011 36.7998 31.5429V36.3429C36.7998 36.7848 36.4416 37.1429 35.9998 37.1429H31.1999C30.7581 37.1429 30.3999 36.7848 30.3999 36.3429V31.5429Z" fill="#E1E4EA"/>
<path d="M30.3999 42.7429C30.3999 42.301 30.7581 41.9429 31.1999 41.9429H35.9998C36.4416 41.9429 36.7998 42.301 36.7998 42.7429V47.5429C36.7998 47.9847 36.4416 48.3429 35.9998 48.3429H31.1999C30.7581 48.3429 30.3999 47.9847 30.3999 47.5429V42.7429Z" fill="#E1E4EA"/>
<path d="M30.3999 53.9431C30.3999 53.5012 30.7581 53.1431 31.1999 53.1431H35.9998C36.4416 53.1431 36.7998 53.5012 36.7998 53.9431V58.7431C36.7998 59.1849 36.4416 59.5431 35.9998 59.5431H31.1999C30.7581 59.5431 30.3999 59.1849 30.3999 58.7431V53.9431Z" fill="#E1E4EA"/>
<path d="M41.6001 20.3427C41.6001 19.9009 41.9583 19.5427 42.4001 19.5427H47.2C47.6418 19.5427 48 19.9009 48 20.3427V25.1427C48 25.5846 47.6418 25.9427 47.2 25.9427H42.4001C41.9583 25.9427 41.6001 25.5846 41.6001 25.1427V20.3427Z" fill="#E1E4EA"/>
<path d="M41.6001 31.5429C41.6001 31.1011 41.9583 30.7429 42.4001 30.7429H47.2C47.6418 30.7429 48 31.1011 48 31.5429V36.3429C48 36.7848 47.6418 37.1429 47.2 37.1429H42.4001C41.9583 37.1429 41.6001 36.7848 41.6001 36.3429V31.5429Z" fill="#E1E4EA"/>
<path d="M41.6001 42.7429C41.6001 42.301 41.9583 41.9429 42.4001 41.9429H47.2C47.6418 41.9429 48 42.301 48 42.7429V47.5429C48 47.9847 47.6418 48.3429 47.2 48.3429H42.4001C41.9583 48.3429 41.6001 47.9847 41.6001 47.5429V42.7429Z" fill="#E1E4EA"/>
<path d="M41.6001 53.9431C41.6001 53.5012 41.9583 53.1431 42.4001 53.1431H47.2C47.6418 53.1431 48 53.5012 48 53.9431V58.7431C48 59.1849 47.6418 59.5431 47.2 59.5431H42.4001C41.9583 59.5431 41.6001 59.1849 41.6001 58.7431V53.9431Z" fill="#E1E4EA"/>
</g>
<defs>
<filter id="filter0_b_774_20397" x="4.00002" y="21.2573" width="38.3994" height="70.4001" filterUnits="userSpaceOnUse" color-interpolation-filters="sRGB">
<feFlood flood-opacity="0" result="BackgroundImageFix"/>
<feGaussianBlur in="BackgroundImageFix" stdDeviation="1.99999"/>
<feComposite in2="SourceAlpha" operator="in" result="effect1_backgroundBlur_774_20397"/>
<feBlend mode="normal" in="SourceGraphic" in2="effect1_backgroundBlur_774_20397" result="shape"/>
</filter>
<filter id="filter1_bi_774_20397" x="16" y="4.80005" width="46.3994" height="78.4001" filterUnits="userSpaceOnUse" color-interpolation-filters="sRGB">
<feFlood flood-opacity="0" result="BackgroundImageFix"/>
<feGaussianBlur in="BackgroundImageFix" stdDeviation="4"/>
<feComposite in2="SourceAlpha" operator="in" result="effect1_backgroundBlur_774_20397"/>
<feBlend mode="normal" in="SourceGraphic" in2="effect1_backgroundBlur_774_20397" result="shape"/>
<feColorMatrix in="SourceAlpha" type="matrix" values="0 0 0 0 0 0 0 0 0 0 0 0 0 0 0 0 0 0 127 0" result="hardAlpha"/>
<feOffset dy="4"/>
<feGaussianBlur stdDeviation="2"/>
<feComposite in2="hardAlpha" operator="arithmetic" k2="-1" k3="1"/>
<feColorMatrix type="matrix" values="0 0 0 0 1 0 0 0 0 1 0 0 0 0 1 0 0 0 0.25 0"/>
<feBlend mode="normal" in2="shape" result="effect2_innerShadow_774_20397"/>
</filter>
<clipPath id="clip0_774_20397">
<rect width="64" height="64" rx="32" fill="white"/>
</clipPath>
</defs>
</svg>
