<svg width="40" height="40" viewBox="0 0 40 40" fill="none" xmlns="http://www.w3.org/2000/svg">
<g id="Icon placeholder/App icon/12">
<path id="Base" d="M0 16C0 10.3995 0 7.59921 1.08993 5.46009C2.04867 3.57847 3.57847 2.04867 5.46009 1.08993C7.59921 0 10.3995 0 16 0H24C29.6005 0 32.4008 0 34.5399 1.08993C36.4215 2.04867 37.9513 3.57847 38.9101 5.46009C40 7.59921 40 10.3995 40 16V24C40 29.6005 40 32.4008 38.9101 34.5399C37.9513 36.4215 36.4215 37.9513 34.5399 38.9101C32.4008 40 29.6005 40 24 40H16C10.3995 40 7.59921 40 5.46009 38.9101C3.57847 37.9513 2.04867 36.4215 1.08993 34.5399C0 32.4008 0 29.6005 0 24V16Z" fill="url(#paint0_linear_251_17902)"/>
<g id="Vector">
<path d="M23.5264 11.0001C23.0439 11.0001 22.5613 11.1868 22.1957 11.5602L20.0507 13.7507L20.7386 14.453L22.8835 12.2625C23.2457 11.8927 23.8071 11.8927 24.1693 12.2625L30.7642 18.9972C31.1264 19.367 31.1266 19.9406 30.7642 20.3105L24.1691 27.0453C23.8069 27.4151 23.2452 27.4149 22.8831 27.0451L20.1908 24.2959L20.1333 24.2372L19.5001 23.5907L19.4978 23.593L15.2474 19.2847C15.2021 19.2388 15.1483 19.2023 15.089 19.1774C15.0298 19.1525 14.9663 19.1397 14.9022 19.1397C14.838 19.1397 14.7745 19.1525 14.7153 19.1774C14.656 19.2023 14.6022 19.2388 14.5569 19.2847C14.5115 19.3307 14.4756 19.3852 14.451 19.4453C14.4265 19.5053 14.4139 19.5697 14.4139 19.6346C14.4139 19.6996 14.4265 19.764 14.451 19.824C14.4756 19.884 14.5115 19.9386 14.5569 19.9845L19.4354 24.9296L22.1949 27.7475C22.9262 28.4943 24.1253 28.4945 24.8566 27.7477L31.4516 21.0128C32.1829 20.266 32.1827 19.0416 31.4516 18.2948L24.8567 11.5601C24.4911 11.1867 24.009 11.0001 23.5264 11.0001Z" fill="url(#paint1_linear_251_17902)"/>
<path d="M15.4741 11C14.9916 11 14.509 11.1868 14.1434 11.5602L7.54846 18.2949C6.81718 19.0416 6.81718 20.2659 7.54846 21.0127L14.1436 27.7475C14.8749 28.4943 16.0737 28.4943 16.805 27.7475L18.9499 25.5573L18.262 24.8548L16.1172 27.0451C15.755 27.4149 15.1933 27.4151 14.8312 27.0452L8.2361 20.3104C7.87391 19.9405 7.87416 19.367 8.2361 18.9971L14.8309 12.2625C15.1931 11.8927 15.7546 11.8927 16.1168 12.2625L19.4997 15.7172L19.5024 15.7145L23.7536 20.0235C23.845 20.1162 23.969 20.1682 24.0982 20.1682C24.2275 20.1682 24.3516 20.1162 24.443 20.0235L24.4451 20.0224C24.5365 19.9297 24.5879 19.8041 24.5879 19.673C24.5879 19.542 24.5365 19.4163 24.4451 19.3236L19.4999 14.3124L16.8048 11.5601C16.4392 11.1867 15.9566 11 15.4741 11Z" fill="url(#paint2_linear_251_17902)"/>
<path d="M16.0418 17.7797L16.0396 17.7816C15.9483 17.8742 15.8971 17.9997 15.8971 18.1305C15.8971 18.2614 15.9483 18.3869 16.0396 18.4794L20.6399 23.1423C20.6851 23.1882 20.7388 23.2245 20.7978 23.2493C20.8569 23.2741 20.9202 23.2869 20.9841 23.2869C21.048 23.2869 21.1113 23.2741 21.1704 23.2493C21.2295 23.2245 21.2831 23.1882 21.3283 23.1423L21.3305 23.1404C21.3757 23.0946 21.4116 23.0402 21.436 22.9803C21.4605 22.9204 21.4731 22.8563 21.4731 22.7915C21.4731 22.7267 21.4605 22.6625 21.436 22.6027C21.4116 22.5428 21.3757 22.4884 21.3305 22.4426L16.7303 17.7797C16.6851 17.7339 16.6315 17.6975 16.5724 17.6727C16.5133 17.6479 16.45 17.6351 16.386 17.6351C16.3221 17.6351 16.2588 17.6479 16.1998 17.6727C16.1407 17.6975 16.087 17.7339 16.0418 17.7797Z" fill="url(#paint3_linear_251_17902)"/>
<path d="M17.6016 16.1985C17.5103 16.2916 17.4593 16.4176 17.4597 16.5488C17.4601 16.6801 17.5119 16.8058 17.6038 16.8983L22.1998 21.5569C22.2916 21.65 22.4162 21.7023 22.5461 21.7023C22.676 21.7023 22.8005 21.65 22.8924 21.5569C22.9836 21.4639 23.0347 21.3379 23.0343 21.2066C23.0339 21.0754 22.9822 20.9497 22.8904 20.8572L18.2943 16.1985C18.2488 16.1524 18.1949 16.1158 18.1355 16.0909C18.076 16.0659 18.0123 16.0531 17.948 16.0531C17.8837 16.0531 17.82 16.0659 17.7606 16.0909C17.7012 16.1158 17.647 16.1524 17.6016 16.1985Z" fill="url(#paint4_linear_251_17902)"/>
</g>
</g>
<defs>
<linearGradient id="paint0_linear_251_17902" x1="20" y1="0" x2="20" y2="40" gradientUnits="userSpaceOnUse">
<stop stop-color="#6199FF"/>
<stop offset="1" stop-color="#045CFB"/>
</linearGradient>
<linearGradient id="paint1_linear_251_17902" x1="19.5" y1="11" x2="19.5" y2="28.3077" gradientUnits="userSpaceOnUse">
<stop stop-color="white"/>
<stop offset="1" stop-color="white" stop-opacity="0.7"/>
</linearGradient>
<linearGradient id="paint2_linear_251_17902" x1="19.5" y1="11" x2="19.5" y2="28.3077" gradientUnits="userSpaceOnUse">
<stop stop-color="white"/>
<stop offset="1" stop-color="white" stop-opacity="0.7"/>
</linearGradient>
<linearGradient id="paint3_linear_251_17902" x1="19.5" y1="11" x2="19.5" y2="28.3077" gradientUnits="userSpaceOnUse">
<stop stop-color="white"/>
<stop offset="1" stop-color="white" stop-opacity="0.7"/>
</linearGradient>
<linearGradient id="paint4_linear_251_17902" x1="19.5" y1="11" x2="19.5" y2="28.3077" gradientUnits="userSpaceOnUse">
<stop stop-color="white"/>
<stop offset="1" stop-color="white" stop-opacity="0.7"/>
</linearGradient>
</defs>
</svg>
