<svg width="462" height="305" viewBox="0 0 462 305" fill="none" xmlns="http://www.w3.org/2000/svg">
<path d="M193.631 95.6547C184.006 101.25 173.996 108.407 171.253 119.19C169.4 126.467 171.229 134.176 170.314 141.621C168.51 156.415 156.623 167.63 145.987 178.077C135.351 188.548 124.547 201.516 125.919 216.358C126.978 227.885 135.64 237.756 146.059 242.847C156.478 247.963 168.437 248.395 180.036 248.683C252.728 250.58 263.003 204.59 299.578 187.779C336.105 170.992 337.116 124.522 332.832 104.541C328.766 85.52 311.417 67.8685 292.095 63.8098C273.951 59.9913 249.552 70.7263 233.021 76.9704C219.378 82.1098 206.191 88.3539 193.631 95.6547Z" fill="#0000EF"/>
<path d="M316.951 149.594C310.454 149.954 303.909 150.242 297.485 151.443C291.493 152.572 284.395 154.349 279.775 158.552C273.518 164.268 275.443 174.522 273.543 182.039C271.81 189.004 267.238 194.648 261.583 198.898C248.686 208.577 231.409 211.867 215.817 214.268C207.347 215.565 198.853 216.55 190.383 217.823C176.835 219.864 163.12 222.002 149.428 220.056C141.463 218.928 133.86 216.502 125.895 215.926C125.895 216.07 125.919 216.19 125.919 216.334C126.978 227.861 135.64 237.732 146.059 242.823C156.478 247.939 168.438 248.371 180.036 248.659C252.728 250.556 263.003 204.566 299.578 187.755C317.457 179.542 326.817 164.22 331.22 148.369C326.504 149.018 321.716 149.33 316.951 149.594Z" fill="#0000D8"/>
<path d="M296.03 176.461L292.383 179.132L292.767 179.655L296.415 176.984L296.03 176.461Z" fill="#03036D"/>
<path d="M293.601 175.99L292.971 176.148L293.969 180.131L294.6 179.974L293.601 175.99Z" fill="#03036D"/>
<path d="M291.036 164.292C290.242 164.292 289.472 164.027 288.87 163.547C287.956 162.803 287.499 161.674 287.643 160.473C287.811 159.128 288.702 157.903 289.977 157.327C291.156 156.775 292.648 157.087 293.659 158.096C294.741 159.176 294.982 160.713 294.308 162.178C293.851 163.163 292.961 163.907 291.902 164.172C291.661 164.244 291.349 164.292 291.036 164.292ZM291.252 157.711C290.915 157.711 290.579 157.783 290.29 157.927C289.231 158.432 288.461 159.44 288.317 160.569C288.196 161.53 288.557 162.442 289.303 163.043C289.977 163.595 290.915 163.787 291.782 163.547C292.648 163.331 293.394 162.707 293.755 161.914C294.308 160.713 294.116 159.464 293.225 158.576C292.672 158 291.95 157.711 291.252 157.711Z" fill="#03036D"/>
<path d="M314.899 166.601L274.027 177.481L274.194 178.108L315.066 167.228L314.899 166.601Z" fill="#03036D"/>
<path d="M260.669 95.1263C255.496 95.1263 250.346 93.181 246.496 89.6267C242.31 85.7602 239.855 79.9724 239.927 74.1846H240.577C240.505 79.8043 242.887 85.3999 246.93 89.1464C251.742 93.5893 258.672 95.4385 265.073 93.9735L265.217 94.598C263.749 94.9582 262.209 95.1263 260.669 95.1263Z" fill="#03036D"/>
<path d="M338.102 149.354L337.453 149.33L338.15 137.802L324.411 136.481V127.716L316.47 128.604L316.398 127.956L325.06 126.995V135.881L338.848 137.202L338.102 149.354Z" fill="#03036D"/>
<path d="M136.699 195.584C135.063 195.584 133.427 195.464 131.814 195.2L131.911 194.552C135.039 195.032 138.215 195.056 141.319 194.576C145.723 193.903 149.5 192.294 152.244 189.892C155.444 187.107 157.249 183.192 157.032 179.422C156.864 176.324 155.083 173.25 152.556 171.64L152.917 171.088C155.636 172.817 157.513 176.059 157.706 179.374C157.922 183.336 156.045 187.443 152.701 190.373C149.861 192.846 145.963 194.527 141.439 195.2C139.851 195.464 138.287 195.584 136.699 195.584Z" fill="#03036D"/>
<path d="M116.583 125.939C115.981 124.089 114.104 122.889 112.155 123.441C111.049 123.753 109.966 124.065 108.859 124.378C107.054 124.882 105.755 126.947 106.356 128.796C106.958 130.646 108.835 131.847 110.784 131.294C111.891 130.982 112.974 130.67 114.08 130.358C115.885 129.829 117.184 127.788 116.583 125.939Z" fill="#F4A914"/>
<path d="M106.188 132.855C106.356 134.392 106.934 136.313 108.474 136.433C110.038 136.554 110.904 134.68 111.145 133.143C111.506 130.814 112.276 121.183 108.161 121.159C103.493 121.135 105.923 130.622 106.188 132.855Z" fill="#FFD939"/>
<path d="M109.581 54.5398C105.081 55.7166 103.637 57.902 103.637 57.902C103.637 57.902 122.526 187.347 125.077 189.244C127.652 191.141 130.804 187.947 130.804 187.947L109.581 54.5398Z" fill="#03036D"/>
<path d="M192.596 67.8926C192.596 67.8926 130.347 75.3855 127.868 75.3375L140.597 168.134C140.597 168.134 187.639 160.737 195.412 162.659C195.412 162.683 194.353 71.0867 192.596 67.8926Z" fill="#2C8469"/>
<path d="M192.572 158.912C185.45 157.135 142.378 163.907 142.378 163.907L130.731 78.9397C132.993 78.9638 189.997 72.1193 189.997 72.1193C190.286 72.6236 190.527 75.5055 190.767 79.9484C191.225 88.3779 191.586 102.379 191.874 116.284C192.307 137.754 192.572 158.912 192.572 158.912Z" fill="#FE7EB2"/>
<path d="M169.232 107.254C175.247 97.3599 180.084 85.2319 181.287 73.176C165.237 75.0973 132.416 78.9878 130.708 78.9638L138.913 138.787C151.233 131.078 161.724 119.622 169.232 107.254Z" fill="#E56EA4"/>
<path d="M127.868 75.3614C118.147 66.6677 109.604 54.5398 109.604 54.5398C109.604 54.5398 126.304 187.971 129.649 188.476C132.993 188.98 140.597 168.182 140.597 168.182L127.868 75.3614Z" fill="#3CA184"/>
<path d="M127.17 84.2473C119.831 77.691 113.407 68.541 113.407 68.541C113.407 68.541 125.991 169.143 128.518 169.503C131.045 169.887 136.771 154.205 136.771 154.205L127.17 84.2473Z" fill="#2C8469"/>
<path d="M141.415 156.823L141.271 156.198C150.824 153.989 159.197 148.081 164.251 139.94C164.924 138.859 165.526 137.754 166.055 136.65C161.483 137.442 157.2 137.298 153.35 136.241C147.72 134.68 143.052 130.958 140.79 126.275C138.287 121.087 139.009 114.699 142.522 110.689C146.492 106.174 153.832 104.997 159.582 107.927C164.852 110.617 168.558 116.308 169.256 122.792C169.713 126.947 168.967 131.414 167.114 135.761C167.836 135.617 168.582 135.425 169.352 135.233C178.062 132.879 185.979 127.668 191.658 120.559C192.283 119.791 192.909 118.926 193.535 118.037C199.189 109.728 201.764 99.2571 200.633 89.2665L201.283 89.1945C202.438 99.3291 199.815 109.968 194.088 118.398C193.462 119.31 192.813 120.175 192.187 120.967C186.436 128.172 178.399 133.48 169.544 135.857C168.582 136.121 167.667 136.337 166.801 136.505C166.224 137.778 165.55 139.051 164.78 140.276C159.679 148.561 151.161 154.589 141.415 156.823ZM152.845 106.99C149.091 106.99 145.434 108.431 143.052 111.145C139.707 114.939 139.033 121.063 141.415 126.011C143.581 130.502 148.105 134.104 153.543 135.617C157.417 136.698 161.748 136.794 166.392 135.929C168.317 131.558 169.111 127.043 168.654 122.889C167.98 116.62 164.395 111.121 159.342 108.527C157.297 107.47 155.059 106.99 152.845 106.99Z" fill="#53CAF1"/>
<path d="M191.874 116.308C186.845 116.62 181.816 116.957 176.787 117.269C175.608 117.341 174.381 117.413 173.322 116.909C171.397 115.972 170.819 113.594 170.434 111.529C169.279 105.309 168.124 99.0649 166.969 92.8208C166.416 89.8429 166.055 86.2645 168.317 84.2232C172.119 80.813 181.648 81.0051 186.58 80.3807C187.904 80.2126 189.324 80.0445 190.791 79.9724C191.08 85.2799 191.321 92.8448 191.537 101.178C191.561 102.307 191.585 103.436 191.634 104.589C191.682 108.431 191.778 112.37 191.874 116.308Z" fill="white"/>
<path d="M170.411 111.505C172.119 124.666 173.611 130.454 173.611 130.454L185.185 111.505H170.411Z" fill="white"/>
<path d="M176.45 90.7076C176.715 92.3166 176.98 93.9257 177.244 95.5347C177.798 95.1265 188.866 96.0871 188.169 92.1965C187.399 88.0658 185.931 89.2186 176.45 90.7076Z" fill="#0000EF"/>
<path d="M191.61 104.589C190.575 104.733 188.578 104.997 185.209 105.381C179.626 106.03 178.736 106.702 178.351 104.637C177.99 102.571 177.605 101.635 190.864 101.154H191.513C191.537 102.307 191.561 103.436 191.61 104.589Z" fill="#0000EF"/>
<path d="M133.426 115.588L131.333 101.779L131.959 101.635L134.076 115.492L133.426 115.588Z" fill="#FFD939"/>
<path d="M136.976 138.47L136.336 138.583L138.519 150.929L139.159 150.816L136.976 138.47Z" fill="#FFD939"/>
<path d="M281.868 36.3599C303.597 31.7728 310.238 28.8189 311.345 32.9256C312.452 37.0323 313.558 122.432 314.665 127.211C315.772 131.991 270.438 127.211 270.438 127.211L281.868 36.3599Z" fill="#03036D"/>
<path d="M326.48 72.1433C325.686 68.7571 304.174 76.4421 304.174 76.4421L299 93.2772C299 93.2772 323.785 85.0878 326.865 82.5902C329.945 80.0685 327.274 75.5295 326.48 72.1433Z" fill="#53CAF1"/>
<path d="M310.334 59.8232C309.42 56.413 294.477 62.537 294.477 62.537L290.699 72.8158C290.699 72.8158 307.928 67.124 310.07 65.3709C312.211 63.6417 310.96 62.1768 310.334 59.8232Z" fill="#53CAF1"/>
<path d="M296.69 17.6756C302.393 15.9705 301.19 15.9705 302.056 19.5008C302.947 23.0311 305.93 142.173 305.93 142.173C305.93 142.173 304.92 143.086 301.816 142.149C298.736 141.213 296.69 17.6756 296.69 17.6756Z" fill="#FE7EB2"/>
<path d="M261.68 36.3598C270.944 33.622 294.669 17.6755 296.691 17.6755C298.712 17.6755 303.139 141.333 301.816 142.149C300.493 142.966 270.463 127.235 270.463 127.235C270.463 127.235 269.187 87.2011 266.54 74.0885C263.893 60.9759 261.68 36.3598 261.68 36.3598Z" fill="#3CA184"/>
<path d="M266.3 42.844C269.957 55.6444 272.893 82.5661 272.893 82.5661H295.608C295.608 82.5661 291.06 34.8468 290.795 32.181L266.3 42.844Z" fill="white"/>
<path d="M269.861 46.3984C272.628 56.0768 274.842 76.4421 274.842 76.4421H291.998C291.998 76.4421 288.557 40.3465 288.365 38.3531L269.861 46.3984Z" fill="#FFD939"/>
<path d="M283.047 40.6587L269.885 46.3985C271.353 51.5138 272.652 59.6071 273.566 66.1154C278.908 58.7185 282.421 49.4965 283.047 40.6587Z" fill="#FE7EB2"/>
<path d="M293.972 103.148C293.948 104.444 294.092 106.005 295.247 106.582C296.282 107.11 297.629 106.414 298.207 105.405C298.784 104.396 298.832 103.172 298.856 101.995C298.904 99.0889 298.953 96.183 299.001 93.2531C299.073 89.8668 295.873 86.6487 294.429 91.1637C293.298 94.7421 294.02 99.4491 293.972 103.148Z" fill="#F4A914"/>
<path d="M294.693 88.9062C289.111 89.0984 291.18 96.2791 286.055 96.8555C280.93 97.4318 280.352 98.2003 281.339 99.185C282.301 100.146 288.918 99.9535 290.555 97.0476C292.215 94.1417 292.84 93.7814 295.896 92.3885C298.952 90.9956 294.693 88.9062 294.693 88.9062Z" fill="#FFD939"/>
<path d="M307.23 84.9677L306.965 84.3673C309.299 83.3346 311.73 82.4701 314.184 81.8217L314.353 82.4461C311.922 83.0945 309.54 83.9591 307.23 84.9677Z" fill="white"/>
<path d="M322.154 78.4953L318.461 79.884L318.69 80.4908L322.383 79.1021L322.154 78.4953Z" fill="white"/>
<path d="M268.225 103.7H267.575V111.913H268.225V103.7Z" fill="#53CAF1"/>
<path d="M263.018 56.693L262.372 56.7629L263.948 71.256L264.594 71.186L263.018 56.693Z" fill="#53CAF1"/>
<path d="M161.099 226.589C163.577 217.943 194.353 185.594 194.353 185.594C192.933 182.64 191.682 179.806 190.599 177.044C186.412 166.429 184.632 157.327 184.848 149.642C185.474 126.587 203.761 116.284 227.246 115.78C261.945 115.035 268.61 132.159 266.3 149.954C264.664 162.515 258.552 175.411 254.654 182.64C252.705 186.266 251.309 188.452 251.309 188.452C253.186 190.205 256.314 194.047 259.947 198.85L259.971 198.874C261.511 200.916 263.172 203.149 264.856 205.455C275.516 220.056 287.812 238.308 288.101 238.741C283.047 236.651 161.099 226.589 161.099 226.589Z" fill="#03036D"/>
<path d="M266.3 149.978C264.664 162.539 258.552 175.435 254.654 182.664C252.584 183.84 250.323 184.897 247.916 185.786C231.506 191.814 209.152 189.796 195.749 181.175C193.872 179.974 192.139 178.581 190.623 177.068C186.437 166.453 184.656 157.351 184.873 149.666C185.233 149.042 185.643 148.465 186.076 147.865C192.5 139.387 213.627 133.455 227.126 133.359C243.609 133.263 259.466 140.228 266.3 149.978Z" fill="white"/>
<path d="M207.154 180.238C215.528 188.476 229.46 190.397 239.711 184.657C249.961 178.917 255.568 165.949 252.632 154.589C249.721 143.23 238.459 134.536 226.717 134.656C218.295 134.728 205.133 140.396 201.114 148.489C196.206 158.384 199.526 172.721 207.154 180.238Z" fill="#53CAF1"/>
<path d="M215.167 172.217C220.004 176.972 228.04 178.077 233.96 174.763C239.879 171.448 243.104 163.956 241.419 157.399C239.735 150.843 233.238 145.824 226.476 145.896C221.616 145.944 214.012 149.21 211.702 153.869C208.839 159.609 210.764 167.894 215.167 172.217Z" fill="#3DB5C9"/>
<path d="M226.068 154.902C233.96 149.762 242.574 150.002 251.285 150.675C247.074 141.285 237.112 134.536 226.741 134.632C218.319 134.704 205.157 140.372 201.139 148.465C197.818 155.166 198.275 163.931 201.283 171.208C210.595 170.632 218.704 159.705 226.068 154.902Z" fill="#3DB5C9"/>
<path d="M225.995 232.232C225.683 228.63 226.26 225.052 227.656 221.809C229.966 216.55 234.562 212.251 239.976 210.306C244.066 208.841 247.916 209.201 250.299 211.267C251.069 211.939 251.646 212.876 251.935 213.956C253.475 212.659 255.472 211.603 257.662 210.978C261.175 209.97 264.953 209.73 268.634 210.306C271.329 210.738 273.904 211.579 276.286 212.804C281.965 215.757 286.392 220.945 288.438 226.997L287.812 227.213C285.815 221.305 281.508 216.262 275.973 213.404C273.663 212.203 271.161 211.387 268.538 210.978C264.953 210.402 261.271 210.642 257.854 211.627C255.616 212.275 253.595 213.38 252.103 214.725C252.44 217.006 251.502 219.72 249.047 220.345L248.614 220.465L248.638 220.032C248.759 218.039 249.697 216.118 251.381 214.509C251.165 213.404 250.635 212.467 249.865 211.795C247.652 209.874 244.042 209.561 240.192 210.954C234.947 212.828 230.495 217.006 228.257 222.122C226.886 225.244 226.332 228.726 226.645 232.208L225.995 232.232ZM251.502 215.277C250.274 216.55 249.553 218.015 249.336 219.528C250.924 218.856 251.598 217.006 251.502 215.277Z" fill="#53CAF1"/>
<path d="M168.438 228.846L168.149 228.27C168.847 227.909 169.569 227.525 170.29 227.093C175.825 223.851 180.71 219.36 184.391 214.148C187.23 210.138 188.385 206.655 187.952 203.509C187.519 200.435 185.618 198.13 184.102 196.761L184.535 196.281C186.148 197.722 188.145 200.147 188.602 203.413C189.059 206.727 187.856 210.354 184.945 214.509C181.215 219.816 176.258 224.355 170.651 227.645C169.857 228.078 169.135 228.486 168.438 228.846Z" fill="#0000EF"/>
<path d="M264.856 205.479H224.6V197.433C224.6 197.433 245.149 198.658 259.947 198.874L259.971 198.898C261.511 200.94 263.172 203.149 264.856 205.479Z" fill="#D2F1FC"/>
<path d="M236.012 202.928L228.846 203.173L228.868 203.821L236.034 203.576L236.012 202.928Z" fill="#0000EF"/>
<path d="M243.46 199.849L239.75 204.544L240.26 204.946L243.97 200.251L243.46 199.849Z" fill="#0000EF"/>
<path d="M250.659 202.429H244.957V203.077H250.659V202.429Z" fill="#0000EF"/>
<path d="M258.062 202.112L255.569 202.521L255.674 203.161L258.167 202.752L258.062 202.112Z" fill="#0000EF"/>
<path d="M201.259 131.654L200.85 131.15C208.237 125.314 217.501 121.928 226.934 121.64C236.366 121.352 245.799 124.161 253.547 129.517L253.162 130.045C245.534 124.738 236.222 121.976 226.934 122.264C217.67 122.576 208.55 125.915 201.259 131.654Z" fill="#0000EF"/>
<path d="M214.397 196.881C208.863 196.881 203.28 194.792 199.142 191.117L199.575 190.637C204.05 194.624 210.283 196.689 216.25 196.161L216.298 196.809C215.673 196.857 215.023 196.881 214.397 196.881Z" fill="#0000EF"/>
<path d="M217.886 262.276L179.675 226.661L184.848 277.91V279.543C197.842 272.267 217.886 262.276 217.886 262.276Z" fill="#03036D"/>
<path d="M177.365 216.694C163.649 203.173 159.679 192.102 156.791 194.864C153.904 197.626 121.612 225.196 125.101 228.846C128.59 232.496 176.402 275.437 181.672 278.775C186.942 282.113 186.894 275.725 205.109 262.54C214.156 256.008 216.587 256.344 215.143 252.045C213.699 247.746 183.044 222.314 177.365 216.694Z" fill="#FFD939"/>
<path d="M157.73 205.983C147.696 212.948 134.221 227.573 134.221 227.573L167.114 255.071C167.114 255.071 186.003 236.795 188.939 235.306L157.73 205.983Z" fill="#F4A914"/>
<path d="M165.839 252.694L161.363 227.741L135.183 227.141V226.492L161.917 227.117L166.464 252.574L165.839 252.694Z" fill="white"/>
<path d="M164 226.157L163.854 226.789L178.18 230.088L178.326 229.456L164 226.157Z" fill="white"/>
<path d="M157.562 207.763L156.932 207.923L161.395 225.45L162.025 225.29L157.562 207.763Z" fill="white"/>
<path d="M171.109 258.529C176.018 253.846 189.493 239.485 192.669 238.765C196.471 241.935 202.246 248.275 204.989 252.646C204.989 252.646 185.595 267.199 183.958 270.153L171.109 258.529Z" fill="#F4A914"/>
<path d="M183.79 270.033L183.14 269.937C183.742 265.902 184.897 261.964 186.605 258.241L187.207 258.506C185.522 262.204 184.367 266.07 183.79 270.033Z" fill="white"/>
<path d="M202.967 253.486C198.66 253.486 194.377 252.862 190.214 251.637L189.925 251.565L192.019 239.965L192.668 240.085L190.671 251.109C195.002 252.357 199.454 252.934 203.954 252.838L203.978 253.486C203.665 253.486 203.304 253.486 202.967 253.486Z" fill="white"/>
<path d="M172.288 259.106L171.975 258.53C176.667 255.912 181.696 253.918 186.894 252.574L187.062 253.198C181.913 254.519 176.932 256.512 172.288 259.106Z" fill="white"/>
<path d="M190.263 232.953C189.926 234.418 191.394 235.979 192.885 235.739C194.377 235.498 195.268 233.529 194.449 232.256C193.631 230.983 191.49 230.911 190.624 232.16" fill="#FE7EB2"/>
<path d="M215.215 252.309C209.296 256.008 182.274 279.447 183.645 279.615C184.969 279.759 186.99 279.543 186.99 279.543C186.99 279.543 209.32 260.907 212.689 258.818C215.769 256.92 216.659 255.84 216.659 255.84L215.215 252.309Z" fill="#0000EF"/>
<path d="M133.584 239.886L133.152 240.371L141.625 247.884L142.057 247.399L133.584 239.886Z" fill="#FFD939"/>
<path d="M161.614 264.155L161.185 264.642L167.869 270.511L168.298 270.025L161.614 264.155Z" fill="#FFD939"/>
<path d="M294.958 245.081C293.178 244.792 288.846 239.269 286.007 240.614C283.168 241.959 298.399 251.181 298.399 251.181C298.399 251.181 311.08 236.147 315.267 237.924C319.454 239.701 313.318 249.404 316.759 254.615C320.2 259.826 322.269 260.115 319.286 262.348C316.302 264.581 314.593 270.393 318.828 267.271C323.063 264.149 327.756 260.115 327.756 260.115C327.756 260.115 323.015 256.248 323.304 251.325C323.593 246.402 350.398 214.124 350.398 214.124L322.077 200.7C322.077 200.7 296.739 245.369 294.958 245.081Z" fill="#53CAF1"/>
<path d="M321.908 223.154L321.331 222.842C324.266 217.27 327.803 212.011 331.87 207.232L332.375 207.664C328.333 212.419 324.82 217.631 321.908 223.154Z" fill="white"/>
<path d="M323.52 250.46C325.253 245.657 337.284 230.311 344.647 221.185C331.774 215.085 317.914 238.116 323.52 250.46Z" fill="#3DB5C9"/>
<path d="M297.557 241.911C296.185 243.928 295.247 245.129 294.934 245.081C293.153 244.792 288.822 239.269 285.983 240.614C283.143 241.959 298.375 251.181 298.375 251.181C298.375 251.181 300.348 248.827 303.019 246.089C301.094 244.864 299.241 243.496 297.557 241.911Z" fill="#3DB5C9"/>
<path d="M323.977 254.975C322.028 255.503 320.055 256.056 318.082 256.488C320.657 259.922 321.86 260.427 319.285 262.348C316.301 264.581 314.593 270.393 318.828 267.271C323.063 264.149 327.755 260.114 327.755 260.114C327.755 260.114 325.205 258.025 323.977 254.975Z" fill="#3DB5C9"/>
<path d="M333.723 215.469C333.362 215.469 333.001 215.397 332.688 215.253C331.653 214.797 331.1 213.764 331.292 212.611C331.461 211.603 332.207 210.546 333.53 210.426C334.95 210.306 335.936 211.194 336.273 212.131C336.658 213.212 336.297 214.317 335.311 214.989C334.829 215.325 334.276 215.469 333.723 215.469ZM333.795 211.074C333.723 211.074 333.65 211.074 333.578 211.074C332.592 211.17 332.038 211.963 331.918 212.731C331.798 213.404 332.014 214.268 332.928 214.677C333.554 214.965 334.348 214.869 334.926 214.461C335.792 213.86 335.864 212.996 335.648 212.371C335.407 211.699 334.757 211.074 333.795 211.074Z" fill="white"/>
<path d="M332.802 208.201L332.193 208.427L333.256 211.286L333.865 211.061L332.802 208.201Z" fill="white"/>
<path d="M321.33 247.458C321.282 248.395 321.787 249.428 322.678 249.692C323.303 249.884 323.977 249.668 324.507 249.283C325.036 248.899 325.421 248.371 325.806 247.867C327.394 245.729 328.982 243.592 330.57 241.454C331.437 240.278 332.207 239.797 330.955 238.645C330.306 238.044 329.536 237.66 328.645 237.708C326.792 237.78 325.325 239.533 324.386 240.95C323.255 242.655 321.427 245.345 321.33 247.458Z" fill="#53CAF1"/>
<path d="M333.824 225.201L333.476 225.748L338.308 228.815L338.657 228.267L333.824 225.201Z" fill="#53CAF1"/>
<path d="M332.35 228.197L332.008 228.749L335.629 230.987L335.971 230.435L332.35 228.197Z" fill="#53CAF1"/>
<path d="M330.737 230.998L330.378 231.539L333.851 233.83L334.209 233.289L330.737 230.998Z" fill="#53CAF1"/>
<path d="M296.018 244.239L295.545 244.685L298.421 247.722L298.893 247.277L296.018 244.239Z" fill="#0000EF"/>
<path d="M323.766 258.11L320.796 259.592L321.087 260.172L324.057 258.69L323.766 258.11Z" fill="#0000EF"/>
<path d="M310.341 234.268L309.958 234.793L316.242 239.358L316.625 238.834L310.341 234.268Z" fill="#3DB5C9"/>
<path d="M327.037 240.139L326.886 240.77L330.607 241.658L330.758 241.028L327.037 240.139Z" fill="white"/>
<path d="M318.462 229.766L317.946 230.161L324.468 238.637L324.984 238.242L318.462 229.766Z" fill="white"/>
<path d="M343.877 243.183C346.067 243.28 348.257 243.544 350.446 243.856C351.144 243.952 351.866 244.048 352.588 244.12C352.636 244.12 352.684 244.12 352.756 244.12C353.767 230.719 353.911 223.875 350.422 214.124L341.952 218.255C346.235 225.052 345.802 236.267 343.877 243.183Z" fill="#53CAF1"/>
<path d="M353.213 236.747C353.43 232.304 353.43 228.582 353.021 225.028C348.617 227.597 349.075 233.721 353.213 236.747Z" fill="#D2F1FC"/>
<path d="M344.166 241.983C343.396 245.225 342.313 247.722 341.158 248.731C337.573 251.925 340.845 252.021 342.048 250.676C343.251 249.332 344.142 248.659 344.454 250.58C344.767 252.502 343.54 256.824 345.273 256.392C346.259 256.128 346.596 255.143 346.692 254.351C346.716 255.407 346.957 256.824 347.895 256.44C348.954 255.984 349.195 254.495 349.243 253.678C349.243 254.543 349.387 256.152 350.133 255.816C351.168 255.359 352.058 252.814 352.515 247.026C352.636 245.609 352.732 244.264 352.828 242.967C349.941 242.679 347.053 242.343 344.166 241.983Z" fill="#3DB5C9"/>
<path d="M346.957 255.191L346.379 254.879C347.101 253.534 347.27 251.901 346.837 250.436L347.462 250.244C347.943 251.877 347.775 253.678 346.957 255.191Z" fill="#0000EF"/>
<path d="M349.331 250.558L348.952 254.261L349.598 254.327L349.977 250.624L349.331 250.558Z" fill="#0000EF"/>
<path d="M298.399 221.978C299.722 223.683 301.238 224.835 302.802 225.556C303.837 222.434 306.123 219.552 308.433 217.318C308.337 217.03 308.361 216.718 308.553 216.334C309.901 213.5 320.945 212.948 320.945 212.948L322.1 200.7C305.545 204.854 291.83 213.5 298.399 221.978Z" fill="#53CAF1"/>
<path d="M308.409 216.718C306.267 218.423 304.342 220.969 303.211 222.818C302.754 223.563 302.369 224.355 302.008 225.148C308.361 228.726 316.013 224.811 316.013 224.811L314.376 219C314.352 219 307.904 219.144 308.409 216.718Z" fill="#D2F1FC"/>
<path d="M300.372 224.043C302.008 222.17 302.875 219.936 302.201 217.198C301.84 215.781 300.805 212.996 299.289 211.843C296.402 215.037 295.728 218.519 298.399 221.978C299.025 222.794 299.674 223.467 300.372 224.043Z" fill="#D2F1FC"/>
<path d="M319.429 216.718L321.33 205.983L313.943 209.73L306.099 201.444C306.099 201.444 308.866 207.52 311.97 215.685L319.718 226.997L327.731 216.622L319.429 216.718Z" fill="#FE673C"/>
<path d="M311.97 216.742C312.523 216.982 312.908 217.535 312.908 218.135C312.932 219.648 310.454 220.681 309.443 219.456C308.529 218.351 310.719 216.214 311.97 216.742Z" fill="#D2F1FC"/>
<path d="M319.213 214.989C308.89 210.786 310.888 213.26 310.575 220.369C310.262 227.477 309.299 227.285 314.882 228.75C320.464 230.215 320.176 230.575 320.585 224.019C321.018 217.463 322.582 216.358 319.213 214.989Z" fill="#03036D"/>
<path d="M310.935 220.008C315.026 217.775 317.144 217.102 317.553 217.703C317.962 218.303 314.665 220.849 314.665 220.849C314.665 220.849 319.429 220.609 319.718 221.689C320.151 223.298 315.291 223.587 315.291 223.587C314.81 224.139 319.79 223.443 319.742 224.835C319.718 226.3 310.55 229.062 306.508 226.565C303.861 224.932 305.666 219.936 308.12 217.967C308.337 217.799 309.323 220.465 310.935 220.008Z" fill="#D2F1FC"/>
<path d="M315.699 219.95L312.207 221.731L312.502 222.308L315.995 220.527L315.699 219.95Z" fill="#0000EF"/>
<path d="M316.633 223.566L313.051 224.175L313.16 224.814L316.742 224.205L316.633 223.566Z" fill="#0000EF"/>
<path d="M312.475 216.814C312.74 216.958 313.077 216.91 313.318 216.742C313.63 216.55 313.871 216.142 313.919 215.709C313.967 215.253 313.775 214.773 313.438 214.605C312.499 214.052 311.296 216.214 312.475 216.814Z" fill="white"/>
<path d="M308.239 213.486L307.74 213.901L308.741 215.1L309.241 214.685L308.239 213.486Z" fill="#0000EF"/>
<path d="M347.872 179.422C331.605 176.18 326.841 185.305 322.077 200.7L350.398 214.124C350.398 214.124 370.298 183.913 347.872 179.422Z" fill="#0000EF"/>
<path d="M344.238 178.893C341.928 182.808 340.893 187.371 345.778 189.724C347.101 190.373 347.462 192.27 346.765 193.471C344.455 197.385 343.179 202.285 344.984 206.656C346.259 209.706 348.69 211.435 351.553 212.251C355.451 205.575 366.929 183.24 347.871 179.422C346.596 179.157 345.369 178.989 344.238 178.893Z" fill="#0000D8"/>
<path d="M337.838 209.201C340.268 210.114 342.722 211.05 345.056 212.179C346.5 209.009 347.631 205.719 348.425 202.333C349.075 199.547 349.484 196.545 348.401 193.927C346.765 189.989 341.928 188.019 337.741 188.812C333.554 189.604 330.065 192.654 327.779 196.233C326.817 197.65 325.469 199.931 324.579 202.309C328.357 205.623 333.169 207.424 337.838 209.201Z" fill="#FFB0D8"/>
<path d="M337.838 209.201C340.268 210.114 342.722 211.05 345.056 212.179C346.5 209.009 347.631 205.719 348.425 202.333C349.075 199.547 349.484 196.545 348.401 193.927C347.703 192.27 346.452 190.973 344.912 190.085C344.671 196.569 340.869 203.101 336.346 208.673C336.851 208.817 337.356 209.009 337.838 209.201Z" fill="#FE7EB2"/>
<path d="M335.167 204.542C319.406 197.073 320.537 198.586 319.478 200.147C318.419 201.708 330.859 206.944 340.484 212.563C350.133 218.183 352.516 216.91 353.238 214.989C353.959 213.068 343.42 208.433 335.167 204.542Z" fill="#D2F1FC"/>
<path d="M338.03 184.561C337.381 184.057 336.538 183.528 335.816 183.937C334.998 184.417 335.191 185.666 335.672 186.482C336.466 187.851 337.741 188.956 339.209 189.58C338.8 188.908 337.91 188.596 337.188 188.86C336.466 189.124 335.961 189.917 336.057 190.685C336.177 191.574 336.947 192.222 337.717 192.654C339.763 193.783 342.313 193.951 344.503 193.135C343.565 194.311 344.262 196.329 345.706 196.833C347.126 197.337 348.834 196.449 349.436 195.056C350.639 192.27 348.112 189.46 345.466 188.98C344.311 188.764 343.468 188.764 342.434 188.043C340.894 186.987 339.474 185.714 338.03 184.561Z" fill="#E56EA4"/>
<path d="M353.911 187.779C353.334 189.364 351.986 190.637 350.374 191.117C350.952 191.213 351.505 190.901 352.058 190.685C352.612 190.469 353.286 190.349 353.719 190.757C354.272 191.285 353.959 192.222 353.454 192.798C352.516 193.855 347.487 195.224 348.016 192.63C348.208 191.742 349.7 190.997 350.398 190.565C351.722 189.772 352.949 189.076 353.911 187.779Z" fill="#E56EA4"/>
<path d="M331.076 198.322C331.822 198.754 332.785 198.706 333.555 198.298C335.696 197.169 335.022 193.879 332.52 193.975C330.402 194.023 328.935 197.121 331.076 198.322Z" fill="white"/>
<path d="M331.076 194.504C329.897 195.464 329.488 197.409 331.076 198.298C331.822 198.73 332.784 198.682 333.554 198.274C333.699 198.202 333.843 198.106 333.964 198.01C332.977 196.857 332.014 195.704 331.076 194.504Z" fill="#0000EF"/>
<path d="M339.715 201.78C340.461 202.213 341.423 202.165 342.193 201.756C344.335 200.628 343.661 197.337 341.158 197.433C339.065 197.506 337.597 200.604 339.715 201.78Z" fill="white"/>
<path d="M339.739 197.986C338.56 198.946 338.15 200.892 339.739 201.78C340.485 202.213 341.447 202.165 342.217 201.756C342.361 201.684 342.506 201.588 342.626 201.492C341.64 200.339 340.677 199.163 339.739 197.986Z" fill="#0000EF"/>
<path d="M332.086 193.063L331.75 192.51C332.977 191.766 334.565 191.622 335.888 192.174L335.648 192.774C334.493 192.294 333.121 192.414 332.086 193.063Z" fill="#0000EF"/>
<path d="M343.781 197.169C343.276 196.016 341.928 195.344 340.701 195.584L340.557 194.936C342.073 194.624 343.733 195.464 344.358 196.881L343.781 197.169Z" fill="#0000EF"/>
<path d="M335.985 203.509C335.479 203.509 334.974 203.461 334.469 203.341L334.613 202.717C335.624 202.957 336.683 202.933 337.669 202.621L337.862 203.245C337.26 203.437 336.634 203.509 335.985 203.509Z" fill="#0000EF"/>
<path d="M329.271 188.98L328.694 188.668C331.365 183.961 337.188 181.151 342.53 182.015L342.434 182.664C337.356 181.823 331.822 184.489 329.271 188.98Z" fill="#53CAF1"/>
</svg>
