<?xml version="1.0" encoding="utf-8"?>
<!-- Generator: Adobe Illustrator 23.1.0, SVG Export Plug-In . SVG Version: 6.00 Build 0)  -->
<svg version="1.1" id="Слой_1" xmlns="http://www.w3.org/2000/svg" xmlns:xlink="http://www.w3.org/1999/xlink" x="0px" y="0px"
	 viewBox="0 0 1920 1270" style="enable-background:new 0 0 1920 1270;" xml:space="preserve">
<style type="text/css">
	.st0{fill:#E04136;}
	.st1{fill:#FE7EB2;}
	.st2{fill:#D2F1FC;}
	.st3{fill:#FFFFFF;}
	.st4{fill:#53CAF1;}
	.st5{fill:#3DB5C9;}
	.st6{fill:#FFB0D8;}
	.st7{fill:#00007F;}
	.st8{fill:#0000D8;}
	.st9{fill:#F3CF14;}
	.st10{fill:#A8E4F4;}
	.st11{fill:#1A5B45;}
	.st12{fill:#2C8469;}
	.st13{fill:#FFD833;}
</style>
<path id="Tongue" class="st0" d="M1124.1,922c-77.7,18.5-270.8,43.9-435.2,47.1v39.3c0,0,602.2,29.5,601.4-28.7
	C1289.5,921.4,1201.8,903.5,1124.1,922z"/>
<path id="Chair" class="st1" d="M833.7,698.6c-10.8,7.4-11.3,5.1,0,69s-0.6,214.6,9,220.9s13.5-103.9,13.5-103.9s149.3-9.6,151.7,0
	c2.4,9.6-4.7,102.2,2.6,104.2c7.3,1.9,17.1-111.3,17.8-121.8s-172.2,0.8-172.2-7.9s-2.5-75.2-7.5-114.1
	C843.8,706.1,841.9,692.9,833.7,698.6z"/>
<g id="Frames">
	<path class="st2" d="M1211.8,591.1l5.8,135c0,0,136.1-9.4,151.1-5.5c0,0-5.6-134.1,0-142.3L1211.8,591.1z"/>
	<path class="st3" d="M1346.4,599.2l-112.3,9.2l4.1,96.7c0,0,97.5-6.8,108.2-4C1346.4,701.1,1342.4,605.1,1346.4,599.2z"/>
	<path class="st2" d="M1054.5,546.6c2.7,25.7,0,89.1,0,89.1h84l-7.4-97.2L1054.5,546.6z"/>
	<path class="st3" d="M1129.4,624.8h-65.7l0.1-1.5c0-0.5,2-47.5,0-66.3l-0.1-1.4l60-6.3L1129.4,624.8z M1066.6,622h59.8l-5.3-69.6
		l-54.4,5.7C1068.3,575.9,1066.9,614.1,1066.6,622z"/>
</g>
<g id="Character">
	<g id="Body">
		<path class="st4" d="M871,693.2c-4.7,8.5-7.1,18-7.6,27.7l-5.4,94.4c-1,16.8-1.2,35.5,10.1,47.9c9.7,10.6,25.5,13.4,39.8,12
			c14.3-1.4,78.9-10.5,93.3-10.3c18.9,0.3,5.3,60.3,13.8,58.5c17.3,4.7,52,1.7,54.6-13.2c0.8-7.6-18.2,2.9-23.3-3.3
			c-7.2-8.8-1.6-33.6-1.7-39.4c-0.1-9.9-2.1-23.6-10.4-29.1c-7.5-5-19.7-2.3-25.9-8.9c-7.3-7.8,0-41.3,0.1-61.5
			c12.4-2.9,24.6-8.5,32.6-18.4s10.5-24.8,3.6-35.5c-7-10.6-35.1-34.7-42.8-41.2c-10.6-8.9-25.5-10.3-38.6-8.8
			C931.6,668,890.7,657.3,871,693.2z"/>
		<path class="st5" d="M934.7,688.6c2.3-8.5,14.3-12.4,20.5-5.4c9.2,10.4,26.9,8.9,39,4.7c5.9-2,10.5-5.3,14.2-9.3
			c-2.7-2.4-5-4.3-6.5-5.5c-10.6-8.9-25.5-10.3-38.6-8.8c-31.6,3.6-72.5-7-92.3,28.8c-4.7,8.5-7.1,18-7.6,27.7l-0.1,2.4
			C892,729.7,926.2,719.9,934.7,688.6z"/>
		<path class="st6" d="M1046.3,907c-7.2-8.8-1.6-33.6-1.7-39.4c-0.1-9.9-2.1-23.6-10.4-29.1c-7.5-5-19.7-2.3-25.9-8.9
			c-7.2-7.7-0.2-40.8,0.1-61c-49.6-7.9-98.7-18.9-145.7-37l-4.8,83.6c-1,16.8-1.2,35.5,10.1,47.9c9.7,10.6,25.5,13.4,39.8,12
			c14.3-1.4,78.9-10.5,93.3-10.3c18.9,0.3,5.3,60.3,13.8,58.5c17.3,4.7,52,1.7,54.6-13.2C1070.4,902.7,1051.4,913.1,1046.3,907z"/>
		<path class="st7" d="M1011.8,911.8c19.2-0.1,38.3-0.3,57.5-0.5c0.1-0.4,0.2-0.7,0.3-1.1c0.8-7.6-18.2,2.9-23.3-3.3
			c-7.2-8.8-1.6-33.6-1.7-39.4c-0.1-9.9-2.1-23.6-10.4-29.1c-7.5-5-19.7-2.3-25.9-8.9c-3.8-4-3.6-15.1-2.6-27.6
			c-15.9-0.2-31.9-0.3-47.8-0.5c-32.8-0.4-66.3,1.8-99.1-1.3l-0.9,15c-1,16.8-1.2,35.5,10.1,47.9c9.7,10.6,25.5,13.4,39.8,12
			c14.3-1.4,78.9-10.5,93.3-10.3C1014.5,865.1,1011.7,894.8,1011.8,911.8z"/>
		<path class="st0" d="M1046.3,907c-0.9-1.1-1.5-2.4-2.1-3.8c-10.8,0.7-21.6,1.3-32.3,1.8c-0.2,10.7-0.1,19.1,3.1,18.5
			c17.3,4.7,52,1.7,54.6-13.2C1070.4,902.7,1051.4,913.1,1046.3,907z"/>
		<path class="st3" d="M1010.4,722.5c3.5-3.5,4.4-8.8,5.1-13.7c1.9-12.5-27-14.1-30.9-3.2C979.9,718.8,1000.2,732.8,1010.4,722.5z"
			/>
		<path class="st8" d="M1001.7,698.4c-1.8,8.9-3.2,17.9-4.4,27c4.6,1.4,9.5,0.8,13.2-2.8c3.5-3.5,4.4-8.8,5.1-13.7
			C1016.5,702.4,1009.4,698.9,1001.7,698.4z"/>
		
			<rect x="1010.9" y="742.9" transform="matrix(0.3222 -0.9467 0.9467 0.3222 -25.1239 1467.4938)" class="st7" width="2.8" height="16.7"/>
		<path class="st7" d="M986.5,692.1l-2.7-0.5c1.6-8.5,9.7-15.3,18.3-15.4c0.1,0,0.2,0,0.3,0c8.5,0,16.6,6.4,18.6,14.7l-2.7,0.6
			c-1.7-7.2-8.8-12.8-16.2-12.5C994.8,679.1,987.9,684.9,986.5,692.1z"/>
	</g>
	<g id="Hand">
		<path class="st4" d="M1082,803.2c-2.9-12-9.5-22.2-21.2-26.1c-11.7-3.9-24.7-2.6-36,2.2c-9.8,4.1-19.8,10.9-30.1,8.3
			c-7.2-1.8-12.7-8.1-15.4-15c-0.3-0.8-0.6-1.6-0.9-2.4c-19.6,8.6-39,17.7-57.8,27.8c4.2,14.9,13.6,28.4,26.9,36.4
			c22.2,13.5,53.1,10.7,72.5-6.6c6.9-6.2,22.9-10.4,25.4-6.9c2.5,3.5,6.6,6.2,10.9,5.8c3.2-0.3,6.3-2.8,7.1-5.8
			c0.7,1.5,2.3,2.8,4.1,2.7c2.8-0.1,5.1-2.7,5.7-5.5c0.1-0.6,0.2-1.2,0.2-1.9c0.8,0.8,1.7,1.5,2.8,1.7c3.5,0.8,7.1-1.7,8.6-4.9
			C1086.4,809.9,1082.9,806.7,1082,803.2z"/>
		<path class="st5" d="M941.1,829.9c2,1.7,4.1,3.3,6.4,4.6c15.2,9.3,34.6,10.8,51.5,5.3C986.8,819.5,957.3,811,941.1,829.9z"/>
		<path class="st6" d="M976.8,763.4c-17.5,0.6-35.1,1-52.6,1.9c-0.6,0.4-1.2,0.8-1.7,1.2c3.8-0.7-2.5,0.5-2.5,0.5
			c-3.7,14.8-1.2,30.9,6.1,44.3c17.5-13.2,35.1-26.4,53.5-38.4c-0.1-0.1-0.1-0.2-0.2-0.4C978.1,769.7,977.3,766.6,976.8,763.4z"/>
		<path class="st7" d="M1061.1,822.8c-1.1-5.1-3.7-9.9-7.5-13.4l1.9-2c4.2,4,7.2,9.3,8.3,14.9L1061.1,822.8z"/>
		<path class="st7" d="M1073.4,815.4c-0.1-6.8-3.2-13.6-8.2-18.1l1.9-2.1c5.6,5.1,9,12.6,9.1,20.1L1073.4,815.4z"/>
		
			<rect x="917" y="780" transform="matrix(0.9976 -6.926352e-02 6.926352e-02 0.9976 -52.5109 65.5111)" class="st8" width="2.8" height="20.1"/>
		<rect x="978.9" y="766.7" class="st8" width="2.8" height="9.2"/>
	</g>
</g>
<g id="Light">
	<polygon class="st9" points="1175.4,697.3 1133.2,648.5 1120.5,658.6 1175.4,706.8 	"/>
	<polygon class="st9" points="1118,712.2 1120.5,726.1 1156,726.1 1159.1,717.7 	"/>
	<polygon class="st9" points="1152,748.6 1138.5,754 1148,763.4 1156.1,754 	"/>
</g>
<g id="Plant">
	<path class="st2" d="M1345.1,798.2c4.3-18,14.5-35.3,30.4-44.9c15.9-9.6,37.8-10.1,52.3,1.5c8.1,6.4,13.5,17.6,9.7,27.2
		c-4.2,10.8-17.1,14.6-27.6,19.4c-19.7,9-35.7,26.1-43.3,46.4c-2.5,6.7-5.8,15.7-14.7,14.5c-5.9-0.8-7.3-5.3-8.1-10.6
		C1341,834.4,1341,815.2,1345.1,798.2z"/>
	<path class="st2" d="M1361.5,850.6c10.9-9.6,26.4-13.9,40.7-11.2c5.4,1,10.8,3.1,14.4,7.2c3.6,4.1,4.8,10.7,1.6,15.1
		c-3.7,5.3-11.4,5.7-17.8,4.4c-6.3-1.3-12.8-3.7-19.1-2.2c-6.8,1.6-11.7,7.5-15.1,13.5c-3.7,6.4-6.9,16.7-13.7,20.4
		c-6,3.3-9,0.3-8.9-5.7C1343.7,877.4,1350.2,860.5,1361.5,850.6z"/>
	<path class="st10" d="M1355.6,820.8c-2.6-10.1-6.8-20-13.4-28c-6.6-8.1-16-14.2-26.3-15.5s-21.6,2.6-27.8,11s-6.2,21.2,0.9,28.9
		c8.5,9.1,23.9,9.3,31.5,19.2c3.3,4.3,4.6,9.9,5.3,15.3c0.7,5.4,1,10.9,2.6,16.1c3.9,11.9,21,19.1,27.6,5.5
		C1363.2,858.6,1359.5,835.6,1355.6,820.8z"/>
	<path class="st2" d="M1346.6,873.1c-8.6-8.6-21.3-12.4-33.5-11.5c-12.1,0.9-23.7,6-33.7,12.9c-2.4,1.7-5,3.8-5.4,6.7
		c-0.6,3.7,2.7,7.1,6.3,8c3.6,0.9,7.4,0,11-1.1c3.6-1.1,7.3-2.3,11-1.8c7.6,0.8,12.7,7.9,16.4,14.6c3.6,6.7,7.3,14.2,14.2,17.3
		c10.4,4.7,19.6-3.3,21.9-12.8C1357.5,893.6,1355.3,881.9,1346.6,873.1z"/>
	<path class="st5" d="M1301.3,900.7l11.3,83.9l53.5-0.5l8.8-85.4C1354.6,908.1,1301.3,900.7,1301.3,900.7z"/>
	<path class="st3" d="M1343.2,869.2l-2.8-0.1c1.5-38.7-14.8-56.5-25.6-68.2c-1-1.1-2-2.2-2.9-3.2l2.1-1.8c0.9,1,1.8,2,2.8,3.1
		C1328,811.1,1344.8,829.4,1343.2,869.2z"/>
	<path class="st3" d="M1359.4,826.6l-2.7-0.9c6.2-19.2,35.8-50.7,54.5-58.1l1,2.6C1394.5,777.3,1365.3,808.4,1359.4,826.6z"/>
	<path class="st3" d="M1363.4,866.8l-2.6-1.1c2.3-5.5,7-10.1,12.5-12.3c5.6-2.2,12.1-1.9,17.5,0.7l-1.2,2.5
		c-4.7-2.3-10.4-2.5-15.3-0.6C1369.5,857.9,1365.4,861.9,1363.4,866.8z"/>
	<path class="st3" d="M1332.3,895.1l-2.8,0c0-4.1-1.8-8.1-4.9-10.7c-3.1-2.6-7.4-3.8-11.4-3.1l-0.5-2.7c4.8-0.8,9.9,0.6,13.6,3.7
		C1330.2,885.4,1332.4,890.2,1332.3,895.1z"/>
	<path class="st3" d="M1337.2,924.7c-8,0-16-0.6-24-1.8l0.4-2.8c17.6,2.6,35.3,2.3,52.8-0.9l0.5,2.7
		C1357,923.8,1347.1,924.7,1337.2,924.7z"/>
</g>
<g id="Table">
	<path class="st11" d="M1198.8,843c0.8-2.5-18.9,3.9-18.9,3.9c3.9,60.2,16.4,138.2,16.4,138.2l10.7,3.6
		C1207,988.7,1198,845.5,1198.8,843z"/>
	<path class="st11" d="M1066.1,843c-12.7,74.7-19.2,142.1-19.2,142.1s7.7,1.6,9.6-16c1.9-17.6,28.8-122.2,28.8-122.2L1066.1,843z"/>
	<path class="st12" d="M1113.8,837.9c-66.6,1.8-88.3-8.8-85,3.6c3.3,12.4-6.2,19.4,85,16.9s118.2,0,119.9-11.5
		C1235.3,835.5,1228.4,834.9,1113.8,837.9z"/>
</g>
<g id="Lines">
	<path class="st5" d="M1425.2,890.3c-3.2,0-6.4-0.1-9.6-0.4l0.3-2.8c38.5,3.5,78.3-15.1,98.9-46.5c21.4-32.5,21.2-76.9-0.5-108
		c-14.6-21-38.6-34.4-63.5-37.4c-7.3,11.9-16.8,22.3-28.1,30.4c-8.1,5.8-19.4,9.8-26.7,3.3c-5.9-5.2-5.2-14.8-1.3-20.7
		c3.4-5.1,9-8.8,17.5-11.8c11.9-4.2,24.6-5.4,37.1-4.1c12.5-21,18.3-46.5,15.4-71.9c-4.2-37.6-27-73.6-60.7-96.3
		c-31.3-21-71.2-30.6-112.3-27.1c-55.8,4.7-109.6,34-144,78.3l-2.2-1.7c34.8-44.9,89.3-74.6,145.9-79.4
		c41.8-3.5,82.3,6.3,114.1,27.6c34.5,23.1,57.6,59.9,62,98.3c2.9,25.6-2.8,51.3-15.2,72.6c25.2,3.4,49.4,17.2,64.2,38.4
		c22.3,31.9,22.5,77.6,0.6,111.1C1497.6,871.7,1461.6,890.3,1425.2,890.3z M1439.9,694.5c-9.1,0-18.2,1.4-26.8,4.5
		c-7.9,2.8-13.1,6.2-16.1,10.7c-3.3,4.9-3.9,12.8,0.8,17c6.1,5.4,16,1.8,23.2-3.5c10.6-7.6,19.6-17.3,26.6-28.4
		C1445.1,694.6,1442.5,694.5,1439.9,694.5z"/>
	<path class="st5" d="M759.7,943.5c-7.5-17.3-7.1-37.8,1-54.8c8.1-17,23.8-30.2,41.9-35.3l0.8,2.7c-17.4,4.9-32.4,17.5-40.2,33.8
		c-7.8,16.3-8.1,35.9-1,52.5L759.7,943.5z"/>
</g>
<g id="Laptop">
	<path class="st8" d="M1224.3,675c-16.8-6.5-22.1-3.5-22.1-3.5l-38.5,155.2h-117.2c0,0,3.1,17.1,18.4,20.3s107,0,107,0l1.5-16.2
		c2.6,0.1,12.9,0.7,12.9,0.7S1237.6,680.2,1224.3,675z"/>
	<polygon class="st10" points="1197.1,675.5 1157.1,816.4 1177.9,816.4 1215.3,682.5 	"/>
	<path class="st2" d="M1176.7,747.5l-19.5,68.9h20.8l8.8-31.4C1183.5,772.5,1180,760,1176.7,747.5z"/>
</g>
<g id="Bubbles">
	<path class="st6" d="M1325.9,231.8c26.9,5.2,54.9,7.7,81.6,1.8c26.8-5.9,52.4-21.1,66.2-44.7s13.7-56.1-4.1-77
		c-16.6-19.3-45.6-25.4-69.9-17.7c-24.3,7.7-43.6,27.5-54.5,50.5c-25.3-12.3-58.8-4-75.5,18.6c-16.7,22.6-14.8,57,4.4,77.6
		c-0.4-0.4-36.1,34.1-0.9,33.2C1293.9,273.5,1317,248.1,1325.9,231.8z"/>
	
		<rect x="1301.4" y="169.7" transform="matrix(0.999 -4.492040e-02 4.492040e-02 0.999 -6.316 61.0977)" class="st3" width="109.9" height="2.8"/>
	<rect x="1364.4" y="198.2" class="st3" width="33.9" height="2.8"/>
	<path class="st6" d="M1338.4,310.1l-3.7,1.4c-4.7,3-9.3,6.4-12.2,11.2c-2.8,4.8-3.4,11.3,0,15.7c3.4,4.4,11.3,4.8,14.2,0.1
		c-0.3,5.1,4.2,9.6,9.2,10.6c5,1,10.2-0.8,14.5-3.5c7.9-5,13.8-13.4,14.4-22.7c0.6-9.3-4.7-19-13.4-22.4S1341.6,301.4,1338.4,310.1z
		"/>
</g>
<g id="Dragon">
	<path class="st9" d="M1172.9,351.9c-11.3-10.6-27.9-8.1-42.3-4.5c-60.7,15.4-119.1,41.8-172.7,77.5c-27.1,18.1-53,38.6-77.3,61.2
		c-21.7,20.3-52,45.1-65.8,73.5c-13.5,27.9,16.8,81.2,33.1,37.1c6-16.1,12-32.3,18-48.4c-4.5,13.1-9.1,26.7-8.4,40.8
		c0.8,14.1,8.5,28.7,20.7,31.5c8.5,2,17.3-2.2,23.7-8.8c6.4-6.6,10.7-15.4,14.4-24.2c5.7-13.5,10.2-27.7,13.7-42.1
		c5.4,16.7,19.4,30.6,34.6,27.7c16.2-3.1,25.6-22.3,31.3-39.8c6.6-20.4,11.4-41.6,14.4-63.2c0,14.8,0.9,29.5,2.7,44.2
		c1.7,13,6,28.4,17.3,31.6c13.4,3.8,24.1-12.5,30-26.7c9.2-22.5,16.8-45.9,22.6-69.9c0.1,3.9,0.4,7.8,1,11.7
		c3.8,24.2,22.2,47.4,43.8,45.1c20.3-2.2,34-24.6,41.7-46c7.1-19.5,11.8-40,14-60.9C1185.2,382.3,1184.4,362.7,1172.9,351.9z"/>
	<path class="st13" d="M1019.1,535.9c2.6,4.9,6.2,8.6,11.2,10c13.4,3.8,24.1-12.5,30-26.7c6.2-15.3,11.7-30.9,16.4-46.9
		C1049.6,474,1030.2,505.5,1019.1,535.9z"/>
	<path class="st13" d="M958.7,573.4c1.9,0.2,3.9,0.1,5.9-0.3c11.4-2.2,19.5-12.4,25.2-24.4c2.6-9.8,6-20,10.2-30
		C979.5,529.4,963.4,551,958.7,573.4z"/>
	<path class="st13" d="M1155.4,430.7c-15.5,8.2-27.6,20.4-36,35.7c-5.8,10.6-9.9,21.9-12.9,33.7c6.3,4.5,13.5,6.9,21.2,6.1
		c20.3-2.2,34-24.6,41.7-46c4.5-12.4,8-25.3,10.6-38.3C1171.2,423.3,1162.5,427,1155.4,430.7z"/>
	<path class="st9" d="M1260.9,882.9c-6.3-4-14.9-2.7-21.3,1.2c-6.4,3.9-11,10.1-15.5,16.1c-18.4,24.6-36.8,49.2-55.2,73.8
		c5.3-12.8,10.6-26.3,9.7-40.1c-0.9-13.9-10.1-28.2-23.9-30.2c-14.4-2-26.9,9.4-36.4,20.5c-16.8,19.6-31.9,40.6-45,62.8
		c10.4-16,3-40-13.8-49c-18.6-9.9-42.6-2.3-57.8,12.3c-14.3,13.8-22.5,32.4-30,50.9c74.9,0.7,149.7,6.7,223.8,18
		c16.7,2.5,36.1,4.5,48-7.5c7.3-7.4,9.6-18.3,11.5-28.5c4.3-22.5,8.5-44.9,12.8-67.4C1270,904.1,1271,889.3,1260.9,882.9z"/>
	<path class="st9" d="M970.1,966.8c-2.3-12.4-8.3-24.7-18.7-31.8c-19.7-13.5-46.9-4.5-67.2,8c-24.8,15.3-46.6,35.3-64,58.7
		c1.4-12.8-11.1-25.1-23.9-23.6c-12.8,1.5-22,16.5-17.6,28.6l12,3.1c59.7-6.3,119.8-9.2,179.9-8.6
		C971.5,989.7,972.2,978.1,970.1,966.8z"/>
	<path class="st13" d="M1055.9,936.4c-18-7.3-40,0.3-54.2,13.9c-1.7,1.7-3.3,3.4-4.9,5.2c-2.7,4.3-5.7,8.3-8.9,12.1
		c-2.1,3.3-4,6.8-5.8,10.3C1008.8,986.2,1036.7,963.3,1055.9,936.4z"/>
	<path class="st13" d="M1132.8,957.6c16.3-10.2,29.8-25.1,39.5-42.1c-4.2-6.2-10.2-10.8-17.6-11.8c-14.4-2-26.9,9.4-36.4,20.5
		c-7.9,9.2-15.4,18.8-22.5,28.6c-2.7,4.8-5.7,9.4-8.8,13.9C1094.5,975.4,1126.9,961.3,1132.8,957.6z"/>
	<path class="st13" d="M1254.2,921.2c5.2-5.5,10.2-11.3,14.9-17.2c0.3-8.5-1.4-16.8-8.3-21.1c-6.3-4-14.9-2.7-21.3,1.2
		c-6.4,3.9-11,10.1-15.5,16.1l-37.3,49.9C1212.4,948.1,1235,937.1,1254.2,921.2z"/>
	<path class="st13" d="M951.6,935.1c-0.1,0-0.1-0.1-0.2-0.1c-19.7-13.5-46.9-4.5-67.2,8c-10.9,6.7-21.2,14.4-30.9,22.9
		C891.4,980.1,924.7,962.3,951.6,935.1z"/>
	<path class="st12" d="M1407.9,1038.3c-14,30.6-712.2-3.4-862.6,5.5c0,0-228.3-61.2-95.7-117.3c-50.4,7.8-159.8-106.9,72.7-125
		c0,0-90.5-63.8-7.6-107.1c-216.8,16.6-167.1-103.3-53.6-102c-38.2-6.4-101.8-75.5,8.9-89.3c91.8,67.6,125,35.7,170.9-1.3
		c1-0.8,2.1-1.6,3.2-2.5c20.9-15.6,71-44.6,130.4-76.5c92.6-49.7,208-106.8,271.9-132.7c107.1-43.3,160.7-100.7,183.6-38.2
		c22.9,62.5,25.5,72.7,0,91.8c-25.5,19.1-1.3,43.4-24.2,61.2c-23,17.9-39.6-33.9-104.6-21.4c-65,12.5-267.8,147.7-323.9,288
		c-56.1,140.3-65,315-65,315s382.6,12.8,471.8,11.5c89.3-1.3,125.5-47.6,174-38.6C1406.6,968.2,1421.9,1007.7,1407.9,1038.3z"/>
	<path class="st11" d="M1065.5,362.1c-31.2,12.4-59.1,32.3-81.3,57.4c-12.9,14.5-23.6,30.5-32.2,47.5
		c60.5-46.1,119.4-77.8,149.3-83.6c65-12.5,81.6,39.3,104.6,21.4c22.9-17.8-1.3-42.1,24.2-61.2c13.4-10.1,19-17.7,18.1-31.7
		c-22.3,17-49.9,25.3-78.8,29.6C1133.9,346.9,1099.1,348.7,1065.5,362.1z"/>
	<path class="st11" d="M1378,965.3c-9.6,15.5-21.6,29.5-35.9,41.3c-25.9,21.4-56.2,35.4-88.2,44.6c88.7-0.6,150-4.1,154.1-12.9
		C1419.8,1012.4,1410.6,980,1378,965.3z"/>
	<path class="st11" d="M592.7,951.6c-21.8-8.6-40.6,0.1-57.7-71.4c-6.9-29.1-3.4-56.4,11.1-80.7c-7.1-4.4-14.7-7.8-22.4-10.9
		c-0.1,0-0.3,0-0.4,0c-6-0.9-12.1-1.5-18.2-1.9c9.1,9.1,17.2,14.8,17.2,14.8c-232.5,18.1-123.1,132.8-72.7,125
		c-132.6,56.1,95.7,117.3,95.7,117.3c18.6-1.1,45.6-1.5,78.6-1.5c-1.8-1.9-3.6-3.8-5.3-5.9C600.5,1015.2,582.5,979.5,592.7,951.6z"
		/>
	<path class="st11" d="M902.6,448.5c-3.1,24-22.2,43.6-44,53.9c-21.9,10.3-46.5,13-70.6,15.6c-24.9,2.7-49.8,5.3-74.7,8
		c-17.3,1.8-36,3.4-51.1-5.3c-8.3-4.8-14.5-12.6-18.1-21.5c20.9-15.6,71-44.6,130.4-76.5c21.1-1.3,41.9-4.2,61-11.8
		C867.3,398.4,908.2,405.3,902.6,448.5z"/>
	<path class="st11" d="M807.5,497c-5.8-35-70.8-33-85.8,7.6c-4.9,13.7-9.9,27.6-11.3,42.1c-1.4,14.5,1.2,29.9,10.2,41.4
		c9.7,12.4,26.5,18.9,42,16.1c21-3.8,36.6-22.9,42.6-43.5C811.1,540.1,809.3,518.3,807.5,497z"/>
	<path class="st3" d="M755.3,606.1c-13.7,0-27.4-6.4-35.8-17.3c-8.3-10.7-12-25.8-10.4-42.4c1.4-14.8,6.5-28.8,11.4-42.4l2.6,0.9
		c-4.8,13.4-9.9,27.3-11.2,41.7c-1.5,15.9,2,30.3,9.9,40.4c9.3,12,25.6,18.3,40.6,15.6c18.7-3.4,34.9-20,41.5-42.5
		c6-20.5,4.1-43.2,2.3-63.1l2.8-0.2c1.7,20.2,3.7,43.1-2.4,64.2c-6.8,23.4-24,40.9-43.7,44.4C760.3,605.9,757.8,606.1,755.3,606.1z"
		/>
	<path class="st5" d="M849.8,349.9c-37.3,14.9-81.4,11.6-121.1,14c-11.8,0.7-23.8,1.4-35,5.3c-18.2,6.3-33.6,21.7-37.8,40.5
		c-4.3,18.8,3.9,40.3,20.6,50c15.1,8.7,33.7,7.1,51,5.3c24.9-2.7,49.8-5.3,74.7-8c24.1-2.6,48.7-5.3,70.6-15.6
		c21.9-10.3,41-29.9,44.1-53.9C922.3,344.2,881.5,337.3,849.8,349.9z"/>
	<path class="st4" d="M746.6,412.3c29.9-6.3,58-17.5,80.5-38.9c7.4-7,14.1-14.7,20.4-22.7c-39.4,13-84.7,9.2-118.8,13.2
		c-11.8,1.4-23.8,1.4-35,5.3c-18.2,6.3-33.6,21.7-37.8,40.5c-0.6,2.6-0.9,5.3-1,8C685.7,421.3,717.9,418.4,746.6,412.3z"/>
	<path class="st5" d="M588,953c-16.4-5.3-30.7-17-39.4-31.9c-8.6-14.9-11.5-33.2-7.9-50c2.8-13,9.2-24.2,18.1-31.8
		c9.9-8.4,23.4-12.1,35-9.4l-0.6,2.7c-10.8-2.4-23.3,1-32.6,8.8c-8.4,7.1-14.5,17.9-17.2,30.2c-3.5,16.2-0.7,33.7,7.6,48.1
		c8.3,14.3,22.1,25.5,37.8,30.6L588,953z"/>
	<path class="st5" d="M656.3,874.6c-18.2,0-36.1-10.5-45-26.4c-9-16.3-8.2-37.6,2-53.2s29.6-24.7,48-22.8l-0.3,2.8
		c-17.5-1.8-35.8,6.9-45.4,21.6c-9.7,14.7-10.4,34.9-1.9,50.3c8.5,15.4,26,25.4,43.7,24.9l0.1,2.8
		C657.1,874.6,656.7,874.6,656.3,874.6z"/>
	<path class="st5" d="M619.6,734.8c-14.6,0-29.5-1.4-43.5-6.2c-22.1-7.6-44.8-27.3-45.8-53.9c-0.8-21.5,13.7-42.9,36.1-53.4
		c17.9-8.3,40.2-10.2,66.3-5.5l-0.5,2.7c-25.5-4.6-47.2-2.8-64.6,5.3c-21.1,9.8-35.3,30.7-34.5,50.8c1,25.2,23.4,44.3,43.9,51.3
		c23.3,8,49.3,6.3,72.3,4.7l0.2,2.8C640,734.1,629.9,734.8,619.6,734.8z"/>
	<path class="st5" d="M1167.8,334.3l-0.6-2.7l42.7-9.9l0.5-56.7c-5.8,2.9-12.8,6-20.1,9.2c-27.5,12.3-61.7,27.6-64.6,42.2
		c-0.7,3.4,0.4,6.5,3.3,9.6l-2,1.9c-3.5-3.8-4.8-7.8-3.9-12.1c3.3-16,38.2-31.6,66.2-44.1c8.2-3.7,15.9-7.1,22-10.2l2-1l-0.6,63.5
		L1167.8,334.3z"/>
	<path class="st5" d="M815.4,569.8l-2.5-1.3c7.3-13.6,11.2-29,11.1-44.5l2.8,0C826.9,539.9,823,555.8,815.4,569.8z"/>
	
		<rect x="1058.4" y="433" transform="matrix(7.027592e-02 -0.9975 0.9975 7.027592e-02 575.2267 1486.0516)" class="st3" width="52.9" height="2.8"/>
	
		<rect x="995.6" y="462.1" transform="matrix(0.1826 -0.9832 0.9832 0.1826 370.464 1372.6571)" class="st3" width="30.2" height="2.8"/>
	
		<rect x="913.7" y="535.1" transform="matrix(4.492040e-02 -0.999 0.999 4.492040e-02 350.8913 1440.0569)" class="st3" width="29.8" height="2.8"/>
	
		<rect x="1073.1" y="982.2" transform="matrix(0.3714 -0.9285 0.9285 0.3714 -236.4051 1617.9733)" class="st3" width="7.3" height="2.8"/>
	
		<rect x="1157.4" y="972" transform="matrix(0.4472 -0.8944 0.8944 0.4472 -225.0074 1582.7925)" class="st3" width="21.2" height="2.8"/>
</g>
</svg>
