<svg width="1440" height="900" viewBox="0 0 1440 900" fill="none" xmlns="http://www.w3.org/2000/svg">
<g opacity="0.5">
<mask id="mask0_1_62602" style="mask-type:alpha" maskUnits="userSpaceOnUse" x="0" y="-540" width="1440" height="1440">
<rect y="-540" width="1440" height="1440" fill="url(#paint0_radial_1_62602)"/>
</mask>
<g mask="url(#mask0_1_62602)">
<path fill-rule="evenodd" clip-rule="evenodd" d="M59.5 -120.5V-179.5H0V-180.5H59.5V-239.5H0V-240.5H59.5V-299.5H0V-300.5H59.5V-359.5H0V-360.5H59.5V-419.5H0V-420.5H59.5V-479.5L0 -479.5V-480.5L59.5 -480.5V-540H60.5V-480.5H119.5V-540H120.5V-480.5L179.5 -480.5V-540H180.5V-480.5L239.5 -480.5V-540H240.5V-480.5L299.5 -480.5V-540H300.5V-480.5H359.5V-540H360.5V-480.5L419.5 -480.5V-540H420.5V-480.5L479.5 -480.5V-540H480.5V-480.5H539.5V-540H540.5V-480.5L599.5 -480.5V-540H600.5V-480.5L659.5 -480.5V-540H660.5V-480.5H719.5V-540H720.5V-480.5H779.5V-540H780.5V-480.5L839.5 -480.5V-540H840.5V-480.5L899.5 -480.5V-540H900.5V-480.5H959.5V-540H960.5V-480.5L1019.5 -480.5V-540H1020.5V-480.5L1079.5 -480.5V-540H1080.5V-480.5H1139.5V-540H1140.5V-480.5L1199.5 -480.5V-540H1200.5V-480.5L1259.5 -480.5V-540H1260.5V-480.5L1319.5 -480.5V-540H1320.5V-480.5H1379.5V-540H1380.5V-480.5L1440 -480.5V-479.5L1380.5 -479.5V-420.5H1440V-419.5H1380.5V-360.5H1440V-359.5H1380.5V-300.5H1440V-299.5H1380.5V-240.5H1440V-239.5H1380.5V-180.5H1440V-179.5H1380.5V-120.5H1440V-119.5H1380.5V-60.5H1440V-59.5H1380.5V-0.5H1440V0.5H1380.5V59.5H1440V60.5H1380.5V119.5H1440V120.5H1380.5V179.5H1440V180.5H1380.5V239.5H1440V240.5H1380.5V299.5H1440V300.5H1380.5V359.5H1440V360.5H1380.5V419.5H1440V420.5H1380.5V479.5H1440V480.5H1380.5V539.5H1440V540.5H1380.5V599.5H1440V600.5H1380.5V659.5H1440V660.5H1380.5V719.5H1440V720.5H1380.5V779.5H1440V780.5H1380.5V839.5H1440V840.5H1380.5V900H1379.5V840.5H1320.5V900H1319.5V840.5H1260.5V900H1259.5V840.5H1200.5V900H1199.5V840.5H1140.5V900H1139.5V840.5H1080.5V900H1079.5V840.5H1020.5V900H1019.5V840.5H960.5V900H959.5V840.5H900.5V900H899.5V840.5H840.5V900H839.5V840.5H780.5V900H779.5V840.5H720.5V900H719.5V840.5H660.5V900H659.5V840.5H600.5V900H599.5V840.5H540.5V900H539.5V840.5H480.5V900H479.5V840.5H420.5V900H419.5V840.5H360.5V900H359.5V840.5H300.5V900H299.5V840.5H240.5V900H239.5V840.5H180.5V900H179.5V840.5H120.5V900H119.5V840.5H60.5V900H59.5V840.5H0V839.5H59.5V780.5H0V779.5H59.5V720.5H0V719.5H59.5V660.5H0V659.5H59.5V600.5H0V599.5H59.5V540.5H0V539.5H59.5V480.5H0V479.5H59.5V420.5H0V419.5H59.5V360.5H0V359.5H59.5V300.5H0V299.5H59.5V240.5H0V239.5H59.5V180.5H0V179.5H59.5V120.5H0V119.5H59.5V60.4999H0V59.4999H59.5V0.499939H0V-0.500061H59.5V-59.5001H0V-60.5001H59.5V-119.5H0V-120.5H59.5ZM60.5 720.5V779.5H119.5V720.5H60.5ZM119.5 719.5H60.5V660.5H119.5V719.5ZM120.5 720.5V779.5H179.5V720.5H120.5ZM179.5 719.5H120.5V660.5H179.5V719.5ZM180.5 720.5V779.5H239.5V720.5H180.5ZM239.5 719.5H180.5V660.5H239.5V719.5ZM240.5 720.5V779.5H299.5V720.5H240.5ZM299.5 719.5H240.5V660.5H299.5V719.5ZM300.5 720.5V779.5H359.5V720.5H300.5ZM359.5 719.5H300.5V660.5H359.5V719.5ZM360.5 720.5V779.5H419.5V720.5H360.5ZM419.5 719.5H360.5V660.5H419.5V719.5ZM420.5 720.5V779.5H479.5V720.5H420.5ZM479.5 719.5H420.5V660.5H479.5V719.5ZM480.5 720.5V779.5H539.5V720.5H480.5ZM539.5 719.5H480.5V660.5H539.5V719.5ZM540.5 720.5V779.5H599.5V720.5H540.5ZM599.5 719.5H540.5V660.5H599.5V719.5ZM600.5 720.5V779.5H659.5V720.5H600.5ZM659.5 719.5H600.5V660.5H659.5V719.5ZM660.5 720.5V779.5H719.5V720.5H660.5ZM719.5 719.5H660.5V660.5H719.5V719.5ZM720.5 720.5V779.5H779.5V720.5H720.5ZM779.5 719.5H720.5V660.5H779.5V719.5ZM780.5 720.5V779.5H839.5V720.5H780.5ZM839.5 719.5H780.5V660.5H839.5V719.5ZM840.5 720.5V779.5H899.5V720.5H840.5ZM899.5 719.5H840.5V660.5H899.5V719.5ZM900.5 720.5V779.5H959.5V720.5H900.5ZM959.5 719.5H900.5V660.5H959.5V719.5ZM960.5 720.5V779.5H1019.5V720.5H960.5ZM1019.5 719.5H960.5V660.5H1019.5V719.5ZM1020.5 720.5V779.5H1079.5V720.5H1020.5ZM1079.5 719.5H1020.5V660.5H1079.5V719.5ZM1080.5 720.5V779.5H1139.5V720.5H1080.5ZM1139.5 719.5H1080.5V660.5H1139.5V719.5ZM1140.5 720.5V779.5H1199.5V720.5H1140.5ZM1199.5 719.5H1140.5V660.5H1199.5V719.5ZM1200.5 720.5V779.5H1259.5V720.5H1200.5ZM1259.5 719.5H1200.5V660.5H1259.5V719.5ZM1260.5 720.5V779.5H1319.5V720.5H1260.5ZM1319.5 719.5H1260.5V660.5H1319.5V719.5ZM1320.5 720.5V779.5H1379.5V720.5H1320.5ZM1379.5 719.5H1320.5V660.5H1379.5V719.5ZM1379.5 300.5V359.5H1320.5V300.5H1379.5ZM1319.5 300.5V359.5H1260.5V300.5H1319.5ZM1319.5 360.5H1260.5V419.5H1319.5V360.5ZM1259.5 300.5V359.5H1200.5V300.5H1259.5ZM1259.5 360.5H1200.5V419.5H1259.5V360.5ZM1199.5 300.5V359.5H1140.5V300.5H1199.5ZM1199.5 360.5H1140.5V419.5H1199.5V360.5ZM1139.5 300.5V359.5H1080.5V300.5H1139.5ZM1139.5 360.5H1080.5V419.5H1139.5V360.5ZM1079.5 300.5V359.5H1020.5V300.5H1079.5ZM1079.5 360.5H1020.5V419.5H1079.5V360.5ZM1019.5 300.5V359.5H960.5V300.5H1019.5ZM1019.5 360.5H960.5V419.5H1019.5V360.5ZM959.5 300.5V359.5H900.5V300.5H959.5ZM959.5 360.5H900.5V419.5H959.5V360.5ZM899.5 300.5V359.5H840.5V300.5H899.5ZM899.5 360.5H840.5V419.5H899.5V360.5ZM839.5 300.5V359.5H780.5V300.5H839.5ZM839.5 360.5H780.5V419.5H839.5V360.5ZM779.5 300.5V359.5H720.5V300.5H779.5ZM779.5 360.5H720.5V419.5H779.5V360.5ZM719.5 300.5V359.5H660.5V300.5H719.5ZM719.5 360.5H660.5V419.5H719.5V360.5ZM659.5 300.5V359.5H600.5V300.5H659.5ZM659.5 360.5H600.5V419.5H659.5V360.5ZM599.5 300.5V359.5H540.5V300.5H599.5ZM599.5 360.5H540.5V419.5H599.5V360.5ZM539.5 300.5V359.5H480.5V300.5H539.5ZM539.5 360.5H480.5V419.5H539.5V360.5ZM479.5 300.5V359.5H420.5V300.5H479.5ZM479.5 360.5H420.5V419.5H479.5V360.5ZM419.5 300.5V359.5H360.5V300.5H419.5ZM419.5 360.5H360.5V419.5H419.5V360.5ZM359.5 300.5V359.5H300.5V300.5H359.5ZM359.5 360.5H300.5V419.5H359.5V360.5ZM299.5 300.5V359.5H240.5V300.5H299.5ZM299.5 360.5H240.5V419.5H299.5V360.5ZM239.5 300.5V359.5H180.5V300.5H239.5ZM239.5 360.5H180.5V419.5H239.5V360.5ZM179.5 300.5V359.5H120.5V300.5H179.5ZM179.5 360.5H120.5V419.5H179.5V360.5ZM119.5 300.5V359.5H60.5V300.5H119.5ZM119.5 360.5H60.5V419.5H119.5V360.5ZM1379.5 360.5H1320.5V419.5H1379.5V360.5ZM60.5 -119.5V-60.5001H119.5V-119.5H60.5ZM119.5 -120.5H60.5V-179.5H119.5V-120.5ZM120.5 -119.5V-60.5001H179.5V-119.5H120.5ZM179.5 -120.5H120.5V-179.5H179.5V-120.5ZM180.5 -119.5V-60.5001H239.5V-119.5H180.5ZM239.5 -120.5H180.5V-179.5H239.5V-120.5ZM240.5 -119.5V-60.5001H299.5V-119.5H240.5ZM299.5 -120.5H240.5V-179.5H299.5V-120.5ZM300.5 -119.5V-60.5001H359.5V-119.5H300.5ZM359.5 -120.5H300.5V-179.5H359.5V-120.5ZM360.5 -119.5V-60.5H419.5V-119.5H360.5ZM419.5 -120.5H360.5V-179.5H419.5V-120.5ZM420.5 -119.5V-60.5H479.5V-119.5H420.5ZM479.5 -120.5H420.5V-179.5H479.5V-120.5ZM480.5 -119.5V-60.5H539.5V-119.5H480.5ZM539.5 -120.5H480.5V-179.5H539.5V-120.5ZM540.5 -119.5V-60.5H599.5V-119.5H540.5ZM599.5 -120.5H540.5V-179.5H599.5V-120.5ZM600.5 -119.5V-60.5H659.5V-119.5H600.5ZM659.5 -120.5H600.5V-179.5H659.5V-120.5ZM660.5 -119.5V-60.5H719.5V-119.5H660.5ZM719.5 -120.5H660.5V-179.5H719.5V-120.5ZM720.5 -119.5V-60.5H779.5V-119.5H720.5ZM779.5 -120.5H720.5V-179.5H779.5V-120.5ZM780.5 -119.5V-60.5H839.5V-119.5H780.5ZM839.5 -120.5H780.5V-179.5H839.5V-120.5ZM840.5 -119.5V-60.5H899.5V-119.5H840.5ZM899.5 -120.5H840.5V-179.5H899.5V-120.5ZM900.5 -119.5V-60.5H959.5V-119.5H900.5ZM959.5 -120.5H900.5V-179.5H959.5V-120.5ZM960.5 -119.5V-60.5H1019.5V-119.5H960.5ZM1019.5 -120.5H960.5V-179.5H1019.5V-120.5ZM1020.5 -119.5V-60.5H1079.5V-119.5H1020.5ZM1079.5 -120.5H1020.5V-179.5H1079.5V-120.5ZM1080.5 -119.5V-60.5H1139.5V-119.5H1080.5ZM1139.5 -120.5H1080.5V-179.5H1139.5V-120.5ZM1140.5 -119.5V-60.5H1199.5V-119.5H1140.5ZM1199.5 -120.5H1140.5V-179.5H1199.5V-120.5ZM1200.5 -119.5V-60.5H1259.5V-119.5H1200.5ZM1259.5 -120.5H1200.5V-179.5H1259.5V-120.5ZM1260.5 -119.5V-60.5H1319.5V-119.5H1260.5ZM1319.5 -120.5H1260.5V-179.5H1319.5V-120.5ZM1320.5 -119.5V-60.5H1379.5V-119.5H1320.5ZM1379.5 -120.5H1320.5V-179.5H1379.5V-120.5ZM1379.5 780.5V839.5H1320.5V780.5H1379.5ZM1319.5 780.5V839.5H1260.5V780.5H1319.5ZM1259.5 780.5V839.5H1200.5V780.5H1259.5ZM1199.5 780.5V839.5H1140.5V780.5H1199.5ZM1139.5 780.5V839.5H1080.5V780.5H1139.5ZM1079.5 780.5V839.5H1020.5V780.5H1079.5ZM1019.5 780.5V839.5H960.5V780.5H1019.5ZM959.5 780.5V839.5H900.5V780.5H959.5ZM899.5 780.5V839.5H840.5V780.5H899.5ZM839.5 780.5V839.5H780.5V780.5H839.5ZM779.5 780.5V839.5H720.5V780.5H779.5ZM719.5 780.5V839.5H660.5V780.5H719.5ZM659.5 780.5V839.5H600.5V780.5H659.5ZM599.5 780.5V839.5H540.5V780.5H599.5ZM539.5 780.5V839.5H480.5V780.5H539.5ZM479.5 780.5V839.5H420.5V780.5H479.5ZM419.5 780.5V839.5H360.5V780.5H419.5ZM359.5 780.5V839.5H300.5V780.5H359.5ZM299.5 780.5V839.5H240.5V780.5H299.5ZM239.5 780.5V839.5H180.5V780.5H239.5ZM179.5 780.5V839.5H120.5V780.5H179.5ZM119.5 780.5V839.5H60.5V780.5H119.5ZM1379.5 420.5V479.5H1320.5V420.5H1379.5ZM1319.5 420.5V479.5H1260.5V420.5H1319.5ZM1319.5 480.5H1260.5V539.5H1319.5V480.5ZM1259.5 420.5V479.5H1200.5V420.5H1259.5ZM1259.5 480.5H1200.5V539.5H1259.5V480.5ZM1199.5 420.5V479.5H1140.5V420.5H1199.5ZM1199.5 480.5H1140.5V539.5H1199.5V480.5ZM1139.5 420.5V479.5H1080.5V420.5H1139.5ZM1139.5 480.5H1080.5V539.5H1139.5V480.5ZM1079.5 420.5V479.5H1020.5V420.5H1079.5ZM1079.5 480.5H1020.5V539.5H1079.5V480.5ZM1019.5 420.5V479.5H960.5V420.5H1019.5ZM1019.5 480.5H960.5V539.5H1019.5V480.5ZM959.5 420.5V479.5H900.5V420.5H959.5ZM959.5 480.5H900.5V539.5H959.5V480.5ZM899.5 420.5V479.5H840.5V420.5H899.5ZM899.5 480.5H840.5V539.5H899.5V480.5ZM839.5 420.5V479.5H780.5V420.5H839.5ZM839.5 480.5H780.5V539.5H839.5V480.5ZM779.5 420.5V479.5H720.5V420.5H779.5ZM779.5 480.5H720.5V539.5H779.5V480.5ZM719.5 420.5V479.5H660.5V420.5H719.5ZM719.5 480.5H660.5V539.5H719.5V480.5ZM659.5 420.5V479.5H600.5V420.5H659.5ZM659.5 480.5H600.5V539.5H659.5V480.5ZM599.5 420.5V479.5H540.5V420.5H599.5ZM599.5 480.5H540.5V539.5H599.5V480.5ZM539.5 420.5V479.5H480.5V420.5H539.5ZM539.5 480.5H480.5V539.5H539.5V480.5ZM479.5 420.5V479.5H420.5V420.5H479.5ZM479.5 480.5H420.5V539.5H479.5V480.5ZM419.5 420.5V479.5H360.5V420.5H419.5ZM419.5 480.5H360.5V539.5H419.5V480.5ZM359.5 420.5V479.5H300.5V420.5H359.5ZM359.5 480.5H300.5V539.5H359.5V480.5ZM299.5 420.5V479.5H240.5V420.5H299.5ZM299.5 480.5H240.5V539.5H299.5V480.5ZM239.5 420.5V479.5H180.5V420.5H239.5ZM239.5 480.5H180.5V539.5H239.5V480.5ZM179.5 420.5V479.5H120.5V420.5H179.5ZM179.5 480.5H120.5V539.5H179.5V480.5ZM119.5 420.5V479.5H60.5V420.5H119.5ZM119.5 480.5H60.5V539.5H119.5V480.5ZM1379.5 480.5H1320.5V539.5H1379.5V480.5ZM60.5 120.5V179.5H119.5V120.5H60.5ZM119.5 119.5H60.5V60.4999H119.5V119.5ZM120.5 120.5V179.5H179.5V120.5H120.5ZM179.5 119.5H120.5V60.4999H179.5V119.5ZM180.5 120.5V179.5H239.5V120.5H180.5ZM239.5 119.5H180.5V60.4999H239.5V119.5ZM240.5 120.5V179.5H299.5V120.5H240.5ZM299.5 119.5H240.5V60.4999H299.5V119.5ZM300.5 120.5V179.5H359.5V120.5H300.5ZM359.5 119.5H300.5V60.4999H359.5V119.5ZM360.5 120.5V179.5H419.5V120.5H360.5ZM419.5 119.5H360.5V60.4999H419.5V119.5ZM420.5 120.5V179.5H479.5V120.5H420.5ZM479.5 119.5H420.5V60.4999H479.5V119.5ZM480.5 120.5V179.5H539.5V120.5H480.5ZM539.5 119.5H480.5V60.4999H539.5V119.5ZM540.5 120.5V179.5H599.5V120.5H540.5ZM599.5 119.5H540.5V60.4999H599.5V119.5ZM600.5 120.5V179.5H659.5V120.5H600.5ZM659.5 119.5H600.5V60.4999H659.5V119.5ZM660.5 120.5V179.5H719.5V120.5H660.5ZM719.5 119.5H660.5V60.4999H719.5V119.5ZM720.5 120.5V179.5H779.5V120.5H720.5ZM779.5 119.5H720.5V60.5H779.5V119.5ZM780.5 120.5V179.5H839.5V120.5H780.5ZM839.5 119.5H780.5V60.5H839.5V119.5ZM840.5 120.5V179.5H899.5V120.5H840.5ZM899.5 119.5H840.5V60.5H899.5V119.5ZM900.5 120.5V179.5H959.5V120.5H900.5ZM959.5 119.5H900.5V60.5H959.5V119.5ZM960.5 120.5V179.5H1019.5V120.5H960.5ZM1019.5 119.5H960.5V60.5H1019.5V119.5ZM1020.5 120.5V179.5H1079.5V120.5H1020.5ZM1079.5 119.5H1020.5V60.5H1079.5V119.5ZM1080.5 120.5V179.5H1139.5V120.5H1080.5ZM1139.5 119.5H1080.5V60.5H1139.5V119.5ZM1140.5 120.5V179.5H1199.5V120.5H1140.5ZM1199.5 119.5H1140.5V60.5H1199.5V119.5ZM1200.5 120.5V179.5H1259.5V120.5H1200.5ZM1259.5 119.5H1200.5V60.5H1259.5V119.5ZM1260.5 120.5V179.5H1319.5V120.5H1260.5ZM1319.5 119.5H1260.5V60.5H1319.5V119.5ZM1320.5 120.5V179.5H1379.5V120.5H1320.5ZM1379.5 119.5H1320.5V60.5H1379.5V119.5ZM60.5 -300.5V-359.5H119.5V-300.5H60.5ZM120.5 -300.5V-359.5H179.5V-300.5H120.5ZM120.5 -360.5H179.5V-419.5H120.5V-360.5ZM180.5 -300.5V-359.5H239.5V-300.5H180.5ZM180.5 -360.5H239.5V-419.5H180.5V-360.5ZM240.5 -300.5V-359.5H299.5V-300.5H240.5ZM240.5 -360.5H299.5V-419.5L240.5 -419.5V-360.5ZM300.5 -300.5V-359.5H359.5V-300.5H300.5ZM300.5 -360.5H359.5V-419.5H300.5V-360.5ZM360.5 -300.5V-359.5H419.5V-300.5H360.5ZM360.5 -360.5H419.5V-419.5H360.5V-360.5ZM420.5 -300.5V-359.5H479.5V-300.5H420.5ZM420.5 -360.5H479.5V-419.5L420.5 -419.5V-360.5ZM480.5 -300.5V-359.5H539.5V-300.5H480.5ZM480.5 -360.5H539.5V-419.5H480.5V-360.5ZM540.5 -300.5V-359.5H599.5V-300.5H540.5ZM540.5 -360.5H599.5V-419.5H540.5V-360.5ZM600.5 -300.5V-359.5H659.5V-300.5H600.5ZM600.5 -360.5H659.5V-419.5L600.5 -419.5V-360.5ZM660.5 -300.5V-359.5H719.5V-300.5H660.5ZM660.5 -360.5H719.5V-419.5H660.5V-360.5ZM720.5 -300.5V-359.5H779.5V-300.5H720.5ZM720.5 -360.5H779.5V-419.5H720.5V-360.5ZM780.5 -300.5V-359.5H839.5V-300.5H780.5ZM780.5 -360.5H839.5V-419.5L780.5 -419.5V-360.5ZM840.5 -300.5V-359.5H899.5V-300.5H840.5ZM840.5 -360.5H899.5V-419.5H840.5V-360.5ZM900.5 -300.5V-359.5H959.5V-300.5H900.5ZM900.5 -360.5H959.5V-419.5H900.5V-360.5ZM960.5 -300.5V-359.5H1019.5V-300.5H960.5ZM960.5 -360.5H1019.5V-419.5L960.5 -419.5V-360.5ZM1020.5 -300.5V-359.5H1079.5V-300.5H1020.5ZM1020.5 -360.5H1079.5V-419.5H1020.5V-360.5ZM1080.5 -300.5V-359.5H1139.5V-300.5H1080.5ZM1080.5 -360.5H1139.5V-419.5H1080.5V-360.5ZM1140.5 -300.5V-359.5H1199.5V-300.5H1140.5ZM1140.5 -360.5H1199.5V-419.5L1140.5 -419.5V-360.5ZM1200.5 -300.5V-359.5H1259.5V-300.5H1200.5ZM1200.5 -360.5H1259.5V-419.5H1200.5V-360.5ZM1260.5 -300.5V-359.5H1319.5V-300.5H1260.5ZM1260.5 -360.5H1319.5V-419.5H1260.5V-360.5ZM1320.5 -300.5V-359.5H1379.5V-300.5H1320.5ZM1320.5 -360.5H1379.5V-419.5L1320.5 -419.5V-360.5ZM60.5 -360.5H119.5V-419.5L60.5 -419.5V-360.5ZM60.5 600.5V659.5H119.5V600.5H60.5ZM119.5 599.5H60.5V540.5H119.5V599.5ZM120.5 600.5V659.5H179.5V600.5H120.5ZM179.5 599.5H120.5V540.5H179.5V599.5ZM180.5 600.5V659.5H239.5V600.5H180.5ZM239.5 599.5H180.5V540.5H239.5V599.5ZM240.5 600.5V659.5H299.5V600.5H240.5ZM299.5 599.5H240.5V540.5H299.5V599.5ZM300.5 600.5V659.5H359.5V600.5H300.5ZM359.5 599.5H300.5V540.5H359.5V599.5ZM360.5 600.5V659.5H419.5V600.5H360.5ZM419.5 599.5H360.5V540.5H419.5V599.5ZM420.5 600.5V659.5H479.5V600.5H420.5ZM479.5 599.5H420.5V540.5H479.5V599.5ZM480.5 600.5V659.5H539.5V600.5H480.5ZM539.5 599.5H480.5V540.5H539.5V599.5ZM540.5 600.5V659.5H599.5V600.5H540.5ZM599.5 599.5H540.5V540.5H599.5V599.5ZM600.5 600.5V659.5H659.5V600.5H600.5ZM659.5 599.5H600.5V540.5H659.5V599.5ZM660.5 600.5V659.5H719.5V600.5H660.5ZM719.5 599.5H660.5V540.5H719.5V599.5ZM720.5 600.5V659.5H779.5V600.5H720.5ZM779.5 599.5H720.5V540.5H779.5V599.5ZM780.5 600.5V659.5H839.5V600.5H780.5ZM839.5 599.5H780.5V540.5H839.5V599.5ZM840.5 600.5V659.5H899.5V600.5H840.5ZM899.5 599.5H840.5V540.5H899.5V599.5ZM900.5 600.5V659.5H959.5V600.5H900.5ZM959.5 599.5H900.5V540.5H959.5V599.5ZM960.5 600.5V659.5H1019.5V600.5H960.5ZM1019.5 599.5H960.5V540.5H1019.5V599.5ZM1020.5 600.5V659.5H1079.5V600.5H1020.5ZM1079.5 599.5H1020.5V540.5H1079.5V599.5ZM1080.5 600.5V659.5H1139.5V600.5H1080.5ZM1139.5 599.5H1080.5V540.5H1139.5V599.5ZM1140.5 600.5V659.5H1199.5V600.5H1140.5ZM1199.5 599.5H1140.5V540.5H1199.5V599.5ZM1200.5 600.5V659.5H1259.5V600.5H1200.5ZM1259.5 599.5H1200.5V540.5H1259.5V599.5ZM1260.5 600.5V659.5H1319.5V600.5H1260.5ZM1319.5 599.5H1260.5V540.5H1319.5V599.5ZM1320.5 600.5V659.5H1379.5V600.5H1320.5ZM1379.5 599.5H1320.5V540.5H1379.5V599.5ZM1379.5 180.5V239.5H1320.5V180.5H1379.5ZM1319.5 180.5V239.5H1260.5V180.5H1319.5ZM1319.5 240.5H1260.5V299.5H1319.5V240.5ZM1259.5 180.5V239.5H1200.5V180.5H1259.5ZM1259.5 240.5H1200.5V299.5H1259.5V240.5ZM1199.5 180.5V239.5H1140.5V180.5H1199.5ZM1199.5 240.5H1140.5V299.5H1199.5V240.5ZM1139.5 180.5V239.5H1080.5V180.5H1139.5ZM1139.5 240.5H1080.5V299.5H1139.5V240.5ZM1079.5 180.5V239.5H1020.5V180.5H1079.5ZM1079.5 240.5H1020.5V299.5H1079.5V240.5ZM1019.5 180.5V239.5H960.5V180.5H1019.5ZM1019.5 240.5H960.5V299.5H1019.5V240.5ZM959.5 180.5V239.5H900.5V180.5H959.5ZM959.5 240.5H900.5V299.5H959.5V240.5ZM899.5 180.5V239.5H840.5V180.5H899.5ZM899.5 240.5H840.5V299.5H899.5V240.5ZM839.5 180.5V239.5H780.5V180.5H839.5ZM839.5 240.5H780.5V299.5H839.5V240.5ZM779.5 180.5V239.5H720.5V180.5H779.5ZM779.5 240.5H720.5V299.5H779.5V240.5ZM719.5 180.5V239.5H660.5V180.5H719.5ZM719.5 240.5H660.5V299.5H719.5V240.5ZM659.5 180.5V239.5H600.5V180.5H659.5ZM659.5 240.5H600.5V299.5H659.5V240.5ZM599.5 180.5V239.5H540.5V180.5H599.5ZM599.5 240.5H540.5V299.5H599.5V240.5ZM539.5 180.5V239.5H480.5V180.5H539.5ZM539.5 240.5H480.5V299.5H539.5V240.5ZM479.5 180.5V239.5H420.5V180.5H479.5ZM479.5 240.5H420.5V299.5H479.5V240.5ZM419.5 180.5V239.5H360.5V180.5H419.5ZM419.5 240.5H360.5V299.5H419.5V240.5ZM359.5 180.5V239.5H300.5V180.5H359.5ZM359.5 240.5H300.5V299.5H359.5V240.5ZM299.5 180.5V239.5H240.5V180.5H299.5ZM299.5 240.5H240.5V299.5H299.5V240.5ZM239.5 180.5V239.5H180.5V180.5H239.5ZM239.5 240.5H180.5V299.5H239.5V240.5ZM179.5 180.5V239.5H120.5V180.5H179.5ZM179.5 240.5H120.5V299.5H179.5V240.5ZM119.5 180.5V239.5H60.5V180.5H119.5ZM119.5 240.5H60.5V299.5H119.5V240.5ZM1379.5 240.5H1320.5V299.5H1379.5V240.5ZM1379.5 -240.5V-299.5H1320.5V-240.5H1379.5ZM1320.5 -239.5H1379.5V-180.5H1320.5V-239.5ZM1319.5 -240.5V-299.5H1260.5V-240.5H1319.5ZM1260.5 -239.5H1319.5V-180.5H1260.5V-239.5ZM1259.5 -240.5V-299.5H1200.5V-240.5H1259.5ZM1200.5 -239.5H1259.5V-180.5H1200.5V-239.5ZM1199.5 -240.5V-299.5H1140.5V-240.5H1199.5ZM1140.5 -239.5H1199.5V-180.5H1140.5V-239.5ZM1139.5 -240.5V-299.5H1080.5V-240.5H1139.5ZM1080.5 -239.5H1139.5V-180.5H1080.5V-239.5ZM1079.5 -240.5V-299.5H1020.5V-240.5H1079.5ZM1020.5 -239.5H1079.5V-180.5H1020.5V-239.5ZM1019.5 -240.5V-299.5H960.5V-240.5H1019.5ZM960.5 -239.5H1019.5V-180.5H960.5V-239.5ZM959.5 -240.5V-299.5H900.5V-240.5H959.5ZM900.5 -239.5H959.5V-180.5H900.5V-239.5ZM899.5 -240.5V-299.5H840.5V-240.5H899.5ZM840.5 -239.5H899.5V-180.5H840.5V-239.5ZM839.5 -240.5V-299.5H780.5V-240.5H839.5ZM780.5 -239.5H839.5V-180.5H780.5V-239.5ZM779.5 -240.5V-299.5H720.5V-240.5H779.5ZM720.5 -239.5H779.5V-180.5H720.5V-239.5ZM719.5 -240.5V-299.5H660.5V-240.5H719.5ZM660.5 -239.5H719.5V-180.5H660.5V-239.5ZM659.5 -240.5V-299.5H600.5V-240.5H659.5ZM600.5 -239.5H659.5V-180.5H600.5V-239.5ZM599.5 -240.5V-299.5H540.5V-240.5H599.5ZM540.5 -239.5H599.5V-180.5H540.5V-239.5ZM539.5 -240.5V-299.5H480.5V-240.5H539.5ZM480.5 -239.5H539.5V-180.5H480.5V-239.5ZM479.5 -240.5V-299.5H420.5V-240.5H479.5ZM420.5 -239.5H479.5V-180.5H420.5V-239.5ZM419.5 -240.5V-299.5H360.5V-240.5H419.5ZM360.5 -239.5H419.5V-180.5H360.5V-239.5ZM359.5 -240.5V-299.5H300.5V-240.5H359.5ZM300.5 -239.5H359.5V-180.5H300.5V-239.5ZM299.5 -240.5V-299.5H240.5V-240.5H299.5ZM240.5 -239.5H299.5V-180.5H240.5V-239.5ZM239.5 -240.5V-299.5H180.5V-240.5H239.5ZM180.5 -239.5H239.5V-180.5H180.5V-239.5ZM179.5 -240.5V-299.5H120.5V-240.5H179.5ZM120.5 -239.5H179.5V-180.5H120.5V-239.5ZM119.5 -240.5V-299.5H60.5V-240.5H119.5ZM60.5 -239.5H119.5V-180.5H60.5V-239.5ZM1379.5 -59.5V-0.5H1320.5V-59.5H1379.5ZM1319.5 -59.5V-0.5H1260.5V-59.5H1319.5ZM1319.5 0.5H1260.5V59.5H1319.5V0.5ZM1259.5 -59.5V-0.5H1200.5V-59.5H1259.5ZM1259.5 0.5H1200.5V59.5H1259.5V0.5ZM1199.5 -59.5V-0.5H1140.5V-59.5H1199.5ZM1199.5 0.5H1140.5V59.5H1199.5V0.5ZM1139.5 -59.5V-0.5H1080.5V-59.5H1139.5ZM1139.5 0.5H1080.5V59.5H1139.5V0.5ZM1079.5 -59.5V-0.5H1020.5V-59.5H1079.5ZM1079.5 0.5H1020.5V59.5H1079.5V0.5ZM1019.5 -59.5V-0.5H960.5V-59.5H1019.5ZM1019.5 0.5H960.5V59.5H1019.5V0.5ZM959.5 -59.5V-0.5H900.5V-59.5H959.5ZM959.5 0.5H900.5V59.5H959.5V0.5ZM899.5 -59.5V-0.5H840.5V-59.5H899.5ZM899.5 0.5H840.5V59.5H899.5V0.5ZM839.5 -59.5V-0.5H780.5V-59.5H839.5ZM839.5 0.5H780.5V59.5H839.5V0.5ZM779.5 -59.5V-0.5H720.5V-59.5H779.5ZM779.5 0.5H720.5V59.5H779.5V0.5ZM719.5 -59.5V-0.500061H660.5V-59.5H719.5ZM719.5 0.499939H660.5V59.4999H719.5V0.499939ZM659.5 -59.5V-0.500061H600.5V-59.5H659.5ZM659.5 0.499939H600.5V59.4999H659.5V0.499939ZM599.5 -59.5V-0.500061H540.5V-59.5H599.5ZM599.5 0.499939H540.5V59.4999H599.5V0.499939ZM539.5 -59.5V-0.500061H480.5V-59.5H539.5ZM539.5 0.499939H480.5V59.4999H539.5V0.499939ZM479.5 -59.5V-0.500061H420.5V-59.5H479.5ZM479.5 0.499939H420.5V59.4999H479.5V0.499939ZM419.5 -59.5V-0.500061H360.5V-59.5H419.5ZM419.5 0.499939H360.5V59.4999H419.5V0.499939ZM359.5 -59.5001V-0.500061H300.5V-59.5001H359.5ZM359.5 0.499939H300.5V59.4999H359.5V0.499939ZM299.5 -59.5001V-0.500061H240.5V-59.5001H299.5ZM299.5 0.499939H240.5V59.4999H299.5V0.499939ZM239.5 -59.5001V-0.500061H180.5V-59.5001H239.5ZM239.5 0.499939H180.5V59.4999H239.5V0.499939ZM179.5 -59.5001V-0.500061H120.5V-59.5001H179.5ZM179.5 0.499939H120.5V59.4999H179.5V0.499939ZM119.5 -59.5001V-0.500061H60.5V-59.5001H119.5ZM119.5 0.499939H60.5V59.4999H119.5V0.499939ZM1379.5 0.5H1320.5V59.5H1379.5V0.5ZM1379.5 -479.5H1320.5V-420.5L1379.5 -420.5V-479.5ZM1319.5 -479.5L1260.5 -479.5V-420.5H1319.5V-479.5ZM1259.5 -479.5L1200.5 -479.5V-420.5H1259.5V-479.5ZM1199.5 -479.5L1140.5 -479.5V-420.5L1199.5 -420.5V-479.5ZM1139.5 -479.5H1080.5V-420.5H1139.5V-479.5ZM1079.5 -479.5L1020.5 -479.5V-420.5H1079.5V-479.5ZM1019.5 -479.5L960.5 -479.5V-420.5L1019.5 -420.5V-479.5ZM959.5 -479.5H900.5V-420.5H959.5V-479.5ZM899.5 -479.5L840.5 -479.5V-420.5H899.5V-479.5ZM839.5 -479.5L780.5 -479.5V-420.5L839.5 -420.5V-479.5ZM779.5 -479.5H720.5V-420.5H779.5V-479.5ZM719.5 -479.5H660.5V-420.5H719.5V-479.5ZM659.5 -479.5L600.5 -479.5V-420.5L659.5 -420.5V-479.5ZM599.5 -479.5L540.5 -479.5V-420.5H599.5V-479.5ZM539.5 -479.5H480.5V-420.5H539.5V-479.5ZM479.5 -479.5L420.5 -479.5V-420.5L479.5 -420.5V-479.5ZM419.5 -479.5L360.5 -479.5V-420.5H419.5V-479.5ZM359.5 -479.5H300.5V-420.5H359.5V-479.5ZM299.5 -479.5L240.5 -479.5V-420.5L299.5 -420.5V-479.5ZM239.5 -479.5L180.5 -479.5V-420.5H239.5V-479.5ZM179.5 -479.5L120.5 -479.5V-420.5H179.5V-479.5ZM119.5 -479.5H60.5V-420.5L119.5 -420.5V-479.5Z" fill="#DCDAE2"/>
</g>
</g>
<defs>
<radialGradient id="paint0_radial_1_62602" cx="0" cy="0" r="1" gradientUnits="userSpaceOnUse" gradientTransform="translate(720 900) rotate(-90) scale(1338.5 788.449)">
<stop stop-color="white"/>
<stop offset="0.991144" stop-color="white" stop-opacity="0"/>
</radialGradient>
</defs>
</svg>
