<svg width="150" height="25" viewBox="0 0 150 25" fill="none" xmlns="http://www.w3.org/2000/svg">
<g clip-path="url(#clip0_1_62611)">
<path d="M91.8453 1.0372C91.1924 1.0372 90.5395 1.28644 90.0448 1.78485L87.1425 4.70883L88.0732 5.64636L90.9754 2.72239C91.4654 2.2287 92.225 2.2287 92.7151 2.72239L101.638 11.7122C102.128 12.2059 102.129 12.9715 101.638 13.4652L92.7148 22.4552C92.2248 22.9489 91.4648 22.9486 90.9748 22.455L88.0728 19.5313L87.3321 18.7851V18.7847L87.2542 18.7068L86.3974 17.8438L86.3944 17.8469L80.6434 12.096C80.5821 12.0346 80.5093 11.986 80.4292 11.9527C80.349 11.9195 80.2631 11.9024 80.1763 11.9024C80.0895 11.9024 80.0036 11.9195 79.9234 11.9527C79.8433 11.986 79.7705 12.0346 79.7091 12.096C79.6478 12.1573 79.5991 12.2301 79.5659 12.3103C79.5327 12.3904 79.5156 12.4763 79.5156 12.5631C79.5156 12.6498 79.5327 12.7357 79.5659 12.8158C79.5991 12.896 79.6478 12.9688 79.7091 13.0301L86.31 19.6311L86.3972 19.7189L87.1416 20.4689L90.0436 23.3925C91.0331 24.3894 92.6555 24.3897 93.645 23.3927L102.568 14.4027C103.558 13.4059 103.558 11.7714 102.568 10.7745L93.6452 1.78476C93.1505 1.28635 92.4977 1.03711 91.8448 1.03711L91.8453 1.0372Z" fill="#0D1126" fill-opacity="0.4"/>
<path d="M80.9506 1.03711C80.2977 1.03711 79.6449 1.28646 79.1501 1.78487L70.227 10.7747C69.2375 11.7715 69.2375 13.4057 70.227 14.4025L79.1504 23.3925C80.1399 24.3894 81.7619 24.3894 82.7514 23.3925L85.6535 20.4689L84.7228 19.5312L81.8208 22.4549C81.3308 22.9486 80.5708 22.9489 80.0807 22.4551L71.1574 13.4651C70.6673 12.9714 70.6676 12.2058 71.1574 11.7121L80.0804 2.7224C80.5705 2.22871 81.3302 2.22871 81.8202 2.7224L84.7225 5.64626L85.4669 6.3962L86.3975 7.33384L86.4011 7.33025L92.1531 13.0822C92.2768 13.2059 92.4445 13.2753 92.6195 13.2753C92.7944 13.2753 92.9622 13.2059 93.0859 13.0822L93.0888 13.0807C93.2125 12.957 93.282 12.7892 93.282 12.6143C93.282 12.4394 93.2125 12.2716 93.0888 12.1479L86.3978 5.45868L85.6535 4.70875L82.7512 1.78477C82.2565 1.28635 81.6035 1.03711 80.9506 1.03711Z" fill="#0D1126" fill-opacity="0.4"/>
<path d="M81.7183 10.087L81.7154 10.0896C81.5918 10.2131 81.5225 10.3806 81.5225 10.5553C81.5225 10.73 81.5918 10.8975 81.7154 11.0211L87.9397 17.2453C88.0009 17.3065 88.0735 17.355 88.1534 17.3881C88.2333 17.4212 88.3189 17.4382 88.4054 17.4382C88.4919 17.4382 88.5775 17.4212 88.6575 17.3881C88.7374 17.355 88.81 17.3065 88.8711 17.2453L88.8741 17.2427C88.9353 17.1816 88.9838 17.1089 89.0169 17.029C89.05 16.9491 89.067 16.8635 89.067 16.777C89.067 16.6905 89.05 16.6048 89.0169 16.5249C88.9838 16.445 88.9353 16.3724 88.8741 16.3112L82.6499 10.087C82.5887 10.0258 82.5161 9.97728 82.4362 9.94418C82.3563 9.91108 82.2705 9.89404 82.1841 9.89404C82.0976 9.89404 82.0119 9.91108 81.932 9.94418C81.8521 9.97728 81.7795 10.0258 81.7183 10.087Z" fill="#0D1126" fill-opacity="0.4"/>
<path d="M83.8292 7.97631C83.7057 8.10057 83.6367 8.2688 83.6372 8.44397C83.6378 8.61915 83.7079 8.78694 83.8322 8.91042L90.0507 15.1291C90.175 15.2533 90.3436 15.3231 90.5193 15.3231C90.6951 15.3231 90.8636 15.2533 90.9878 15.1291C91.1113 15.0048 91.1804 14.8366 91.1799 14.6614C91.1794 14.4863 91.1094 14.3185 90.9852 14.1949L84.7665 7.97631C84.7049 7.91478 84.632 7.86597 84.5516 7.83267C84.4712 7.79937 84.385 7.78223 84.298 7.78223C84.211 7.78223 84.1248 7.79937 84.0444 7.83267C83.964 7.86597 83.8907 7.91478 83.8292 7.97631Z" fill="#0D1126" fill-opacity="0.4"/>
<path d="M1.82812 16.4758H3.31333V13.4241H5.68038L8.07068 16.4758H9.8924L7.30488 13.2385C8.82489 13.134 9.83437 12.2638 9.83437 10.6742C9.83437 9.02651 8.87126 8.01703 6.84071 8.01703H1.82812V16.4758ZM6.48106 9.20055C7.52536 9.20055 8.20987 9.61827 8.20987 10.5697V10.9526C8.20987 11.7417 7.74582 12.3218 6.48106 12.3218H3.31333V9.20055H6.48106ZM12.4045 16.4758H19.5986V15.3038H13.8898V12.7047H18.9023V11.6024H13.8898V9.18895H19.6102V8.01703H12.4045V16.4758ZM26.2994 16.5918C28.6781 16.5918 30.4882 15.3851 30.7435 13.7026H29.2003C28.9682 14.7121 27.8543 15.3967 26.2994 15.3967C24.0716 15.3967 23.0274 14.1899 23.0274 12.6467V11.8577C23.0274 10.268 24.0716 9.09613 26.2994 9.09613C27.7614 9.09613 28.9102 9.71109 29.2003 10.7786H30.7435C30.4882 9.10773 28.7245 7.9126 26.2994 7.9126C23.4334 7.9126 21.4494 9.43262 21.4494 12.1826V12.3102C21.4494 15.0718 23.4334 16.5918 26.2994 16.5918ZM33.07 16.4758H34.5552V13.4241H36.9223L39.3126 16.4758H41.1342L38.5467 13.2385C40.0667 13.134 41.0763 12.2638 41.0763 10.6742C41.0763 9.02651 40.1132 8.01703 38.0826 8.01703H33.07V16.4758ZM37.7229 9.20055C38.7672 9.20055 39.4518 9.61827 39.4518 10.5697V10.9526C39.4518 11.7417 38.9876 12.3218 37.7229 12.3218H34.5552V9.20055H37.7229ZM47.7075 16.5918C50.3182 16.5918 51.9659 15.2574 51.9659 13.1688V8.01703H50.4923V13.0528C50.4923 14.5032 49.5293 15.3735 47.7424 15.3735C46.0599 15.3735 44.9576 14.596 44.9576 13.0528V8.01703H43.5072V13.1688C43.5072 15.2226 44.9691 16.5918 47.7075 16.5918ZM54.9074 16.4758H56.3926V8.01703H54.9074V16.4758ZM66.3076 9.20055V8.01703H58.5219V9.20055H61.6548V16.4758H63.1284V9.20055H66.3076Z" fill="#0D1126" fill-opacity="0.4"/>
<path d="M108.514 16.4758H110.22V9.80398L110.231 9.53711H110.336L110.429 9.80398L112.981 16.4758H114.664L117.193 9.80398L117.298 9.53711H117.391V16.4758H119.12V8.01709H116.323L113.84 14.364H113.77L111.369 8.01709H108.514V16.4758ZM121.017 16.4758H122.769L123.581 14.5961H128.106L128.907 16.4758H130.717L127.12 8.01709H124.625L121.017 16.4758ZM124.068 13.3546L125.356 10.4073L125.797 9.30505H125.878L126.319 10.4073L127.607 13.3546H124.068ZM138.683 9.45589V8.01709H130.746V9.45589H133.775V16.4758H135.585V9.45589H138.683ZM140.754 16.4758H148.168V15.0602H142.564V12.8208H147.472V11.5097H142.564V9.43268H148.192V8.01709H140.754V16.4758Z" fill="#0D1126" fill-opacity="0.4"/>
</g>
<defs>
<clipPath id="clip0_1_62611">
<rect width="150" height="24.9057" fill="white"/>
</clipPath>
</defs>
</svg>
